<?xml version="1.0" encoding="utf-8"?>
<!-- Generator: Adobe Illustrator 19.0.0, SVG Export Plug-In . SVG Version: 6.00 Build 0)  -->
<svg version="1.1" id="Capa_1" xmlns="http://www.w3.org/2000/svg" xmlns:xlink="http://www.w3.org/1999/xlink" x="0px" y="0px"
	 viewBox="0 0 27 35.5" style="enable-background:new 0 0 27 35.5;" xml:space="preserve">
<style type="text/css">
	.st0{fill:#F49926;}
</style>
<g id="XMLID_80_">
	<g id="XMLID_81_">
		<g id="XMLID_82_">
			<path id="XMLID_83_" class="st0" d="M5.2,5.8c0.2,0,0.5,0.1,0.8,0.3L21.7,17c0.9,0.6,0.9,1.7,0,2.3L6.1,30.6
				C5.8,30.9,5.5,31,5.3,31c-0.5,0-0.8-0.4-0.8-1.1L4.4,7C4.4,6.3,4.7,5.8,5.2,5.8L5.2,5.8z M5.2,4.8L5.2,4.8C4.7,4.8,4.3,5,4,5.3
				C3.7,5.6,3.4,6.1,3.4,7l0,22.9c0,1.5,1,2.1,1.9,2.1c0.5,0,1-0.2,1.5-0.5l15.6-11.3c0.7-0.5,1.1-1.2,1.1-2c0-0.8-0.4-1.5-1.2-2
				L6.7,5.3C6.2,5,5.7,4.8,5.2,4.8L5.2,4.8z"/>
		</g>
	</g>
</g>
</svg>
