<?xml version="1.0" encoding="utf-8"?>
<!-- Generator: Adobe Illustrator 19.0.0, SVG Export Plug-In . SVG Version: 6.00 Build 0)  -->
<svg version="1.1" id="Capa_1" xmlns="http://www.w3.org/2000/svg" xmlns:xlink="http://www.w3.org/1999/xlink" x="0px" y="0px"
	 viewBox="0 0 1105 689" style="enable-background:new 0 0 1105 689;" xml:space="preserve">
<style type="text/css">
	.st0{opacity:0.3;}
	.st1{fill:#F49926;}
</style>
<g class="st0">
	<g>
		<path class="st1" d="M33.5,409.5c0.4,0,0.8,0.2,1.3,0.6L56.2,429c0.4,0.4,0.7,0.8,0.8,1.3c0.3,1,0.1,2.2-0.8,3l-21.1,18.6
			c-0.5,0.4-0.9,0.6-1.3,0.6c-0.7,0-1.1-0.6-1.1-1.7l0-7.8c0-1.8-1.5-3.2-3.2-3.2l-11.5,0c-1.8,0-3.2-1.5-3.2-3.2l0-6.2l0-3.9
			c0-1.8,1.5-3.2,3.2-3.2h11.2c1.8,0,3.2-1.4,3.2-3.2l0-8.7C32.4,410.1,32.8,409.5,33.5,409.5L33.5,409.5z M33.5,407.8
			c-1.3,0-2.7,1-2.7,3.3l0,8.7c0,0.9-0.7,1.6-1.6,1.6H18c-2.7,0-4.8,2.2-4.8,4.8l0,3.9l0,6.2c0,2.7,2.2,4.8,4.8,4.8l11.5,0
			c0.9,0,1.6,0.7,1.6,1.6l0,7.8c0,2.3,1.4,3.3,2.7,3.3c0.8,0,1.6-0.3,2.4-1l21.1-18.6c1.4-1.2,1.9-3,1.3-4.7c-0.3-0.8-0.7-1.4-1.3-2
			l-21.4-18.9C35.1,408.2,34.3,407.8,33.5,407.8L33.5,407.8z"/>
	</g>
	<g>
		<path class="st1" d="M1067,14.5C1067,14.5,1067,14.5,1067,14.5l11.4,0c2,0,3.6,1.6,3.6,3.6v12.6c0,2,1.6,3.6,3.6,3.6l9.8,0
			c2,0,2.5,1.2,1.2,2.7l-21.2,24.1c-0.7,0.7-1.5,1.1-2.4,1.1s-1.7-0.4-2.4-1.1l-20.9-23.7c-1.3-1.5-0.8-2.7,1.2-2.7l8.8,0
			c2,0,3.6-1.6,3.6-3.6l0-12.9C1063.3,16.1,1065,14.5,1067,14.5L1067,14.5z M1067,12.6C1067,12.6,1067,12.6,1067,12.6L1067,12.6
			c-3.1,0-5.6,2.5-5.6,5.5l0,12.9c0,0.9-0.8,1.7-1.7,1.7l-8.8,0c-2.5,0-3.3,1.4-3.6,1.9c-0.3,0.6-0.7,2.1,0.9,4l20.9,23.8
			c1,1.1,2.4,1.8,3.8,1.8c1.4,0,2.8-0.6,3.8-1.8l21.2-24.1c1.6-1.9,1.2-3.4,0.9-4c-0.3-0.6-1.1-1.9-3.6-1.9l-9.8,0
			c-0.9,0-1.7-0.8-1.7-1.7V18.2c0-3.1-2.5-5.6-5.5-5.6L1067,12.6L1067,12.6z"/>
	</g>
	<g>
		<path class="st1" d="M74.9,199c0.6,0,1.2,0.5,1.6,1.6l4.2,10.2c0.9,2.2,3.5,4.1,5.8,4.3l11.3,1c2.3,0.2,2.8,1.7,1.2,3.3l-8.5,8.3
			c-1.7,1.6-2.6,4.8-2.1,7.1l2.2,9.5c0.4,1.6-0.2,2.6-1.3,2.6c-0.4,0-0.9-0.1-1.5-0.4l-9.3-4.9c-1-0.5-2.4-0.8-3.7-0.8
			c-1.4,0-2.7,0.3-3.7,0.8l-9.3,4.9c-0.6,0.3-1.1,0.4-1.5,0.4c-1.1,0-1.7-1-1.3-2.6l2.3-9.5c0.5-2.3-0.4-5.4-2.1-7.1l-8.5-8.3
			c-1.7-1.6-1.1-3.1,1.2-3.3l11.3-1c2.3-0.2,4.9-2.1,5.8-4.3l4.2-10.2C73.7,199.6,74.3,199,74.9,199L74.9,199z M74.9,197.1
			c-0.8,0-2.4,0.4-3.4,2.8l-4.2,10.2c-0.6,1.5-2.6,3-4.2,3.1l-11.3,1c-2.7,0.2-3.5,1.8-3.7,2.4c-0.2,0.6-0.6,2.3,1.4,4.2l8.5,8.3
			c1.2,1.1,1.9,3.6,1.5,5.3l-2.3,9.5c-0.5,1.9,0.1,3.1,0.6,3.8c0.6,0.8,1.5,1.2,2.6,1.2c0.8,0,1.6-0.2,2.4-0.7l9.3-4.9
			c0.7-0.4,1.8-0.6,2.8-0.6c1.1,0,2.1,0.2,2.8,0.6l9.3,4.9c0.8,0.4,1.7,0.7,2.4,0.7c1,0,2-0.4,2.6-1.2c0.5-0.7,1-1.8,0.6-3.8
			l-2.2-9.5c-0.4-1.6,0.3-4.1,1.5-5.2l8.5-8.3c1.9-1.9,1.6-3.6,1.4-4.2c-0.2-0.6-1.1-2.2-3.7-2.4l-11.3-1c-1.6-0.1-3.6-1.6-4.2-3.1
			l-4.2-10.2C77.3,197.5,75.7,197.1,74.9,197.1L74.9,197.1z"/>
	</g>
	<g>
		<path class="st1" d="M69.8,75.4c3.9,0,7,3.2,7,7v18.7c0,3.4-2.4,6.2-5.6,6.9c0.3,3,2.1,5.3,5.2,7.3c-1.2,0.5-2.5,0.7-3.8,0.7
			c-5.4,0-11-3.8-12.6-7.9H34.7c-3.9,0-7-3.2-7-7V82.4c0-3.9,3.2-7,7-7H69.8L69.8,75.4z M66,96.8c2.7,0,4.8-2.2,4.8-4.8
			c0-2.7-2.2-4.8-4.8-4.8c-2.7,0-4.8,2.2-4.8,4.8C61.2,94.6,63.3,96.8,66,96.8L66,96.8z M52.3,96.8c2.7,0,4.8-2.2,4.8-4.8
			c0-2.7-2.2-4.8-4.8-4.8c-2.7,0-4.8,2.2-4.8,4.8C47.5,94.6,49.6,96.8,52.3,96.8L52.3,96.8z M38.8,96.8c2.7,0,4.8-2.2,4.8-4.8
			c0-2.7-2.2-4.8-4.8-4.8c-2.7,0-4.8,2.2-4.8,4.8C33.9,94.6,36.1,96.8,38.8,96.8L38.8,96.8z M69.8,73.2H34.7c-5.1,0-9.3,4.2-9.3,9.3
			v18.7c0,5.1,4.2,9.3,9.3,9.3h23.9c2.6,4.4,8.6,7.9,14,7.9c1.6,0,3.2-0.3,4.6-0.8c0.8-0.3,1.3-1,1.4-1.9c0.1-0.8-0.3-1.7-1-2.1
			c-2-1.2-3.2-2.5-3.8-4c3.1-1.5,5.2-4.7,5.2-8.3V82.4C79.1,77.3,75,73.2,69.8,73.2L69.8,73.2z M66,94.5c-1.4,0-2.6-1.2-2.6-2.6
			c0-1.4,1.2-2.6,2.6-2.6c1.4,0,2.6,1.2,2.6,2.6C68.6,93.4,67.4,94.5,66,94.5L66,94.5z M52.3,94.5c-1.4,0-2.6-1.2-2.6-2.6
			c0-1.4,1.2-2.6,2.6-2.6c1.4,0,2.6,1.2,2.6,2.6C54.9,93.4,53.7,94.5,52.3,94.5L52.3,94.5z M38.8,94.5c-1.4,0-2.6-1.2-2.6-2.6
			c0-1.4,1.2-2.6,2.6-2.6c1.4,0,2.6,1.2,2.6,2.6C41.3,93.4,40.2,94.5,38.8,94.5L38.8,94.5z"/>
	</g>
	<g>
		<g>
			<g>
				<path class="st1" d="M847.8,165.2c8.7,0.1,15.8,7.2,15.8,15.9c0,8.8-7.1,15.9-15.9,15.9c-6.6,0-12.2-4-14.6-9.7h-9
					c-2.4,5.7-8.1,9.7-14.6,9.7c-8.8,0-15.9-7.1-15.9-15.9c0-8.6,6.9-15.7,15.4-15.9v0H847.8L847.8,165.2z M847.8,162.4H809
					c-0.1,0-0.1,0-0.2,0c-10.1,0.4-18,8.5-18,18.6c0,10.3,8.4,18.7,18.7,18.7c6.9,0,13.1-3.7,16.4-9.7h5.5c3.2,5.9,9.5,9.7,16.4,9.7
					c10.3,0,18.7-8.4,18.7-18.7C866.4,170.9,858.1,162.5,847.8,162.4C847.8,162.4,847.8,162.4,847.8,162.4L847.8,162.4z"/>
			</g>
		</g>
		<path class="st1" d="M816.4,182.8h-4.5v4.4c0,1.2-1,2.2-2.2,2.2c-1.2,0-2.2-1-2.2-2.2v-4.4h-4.2c-1.2,0-2.2-1-2.2-2.2
			c0-1.2,1-2.2,2.2-2.2h4.2V174c0-1.2,1-2.2,2.2-2.2c1.2,0,2.2,1,2.2,2.2v4.5h4.5c1.2,0,2.2,1,2.2,2.2
			C818.6,181.8,817.6,182.8,816.4,182.8z"/>
		<path class="st1" d="M842.4,183.7c-1.6,0-2.9-1.3-2.9-2.9c0-1.6,1.3-2.9,2.9-2.9c1.6,0,2.9,1.3,2.9,2.9
			C845.3,182.4,844,183.7,842.4,183.7z"/>
		<path class="st1" d="M848.6,189.9c-1.6,0-2.9-1.3-2.9-2.9c0-1.6,1.3-2.9,2.9-2.9c1.6,0,2.9,1.3,2.9,2.9
			C851.5,188.6,850.2,189.9,848.6,189.9z"/>
		<path class="st1" d="M848.6,177.6c-1.6,0-2.9-1.3-2.9-2.9c0-1.6,1.3-2.9,2.9-2.9c1.6,0,2.9,1.3,2.9,2.9
			C851.5,176.3,850.2,177.6,848.6,177.6z"/>
		<path class="st1" d="M854.8,183.7c-1.6,0-2.9-1.3-2.9-2.9c0-1.6,1.3-2.9,2.9-2.9c1.6,0,2.9,1.3,2.9,2.9
			C857.7,182.4,856.4,183.7,854.8,183.7z"/>
	</g>
	<g>
		<g>
			<path class="st1" d="M328,381.9c1.3,0,2.6,0.2,3.9,0.5c8.9,2.1,14.3,11.1,12.2,20c-1.8,7.6-8.6,12.6-16.1,12.6
				c-1.3,0-2.6-0.2-3.9-0.5c-1.8-0.4-3.5-1.2-5-2.1c-3.2,2.8-12.5,10.9-13.4,11.6c-0.8,0.6-1.8,0.9-2.8,0.9c-1.1,0-2.2-0.4-3-1.5
				c-1.5-1.9-0.7-4.1,0.8-5.4c0.9-0.8,9.5-8.2,13.1-11.3c-2.1-3.6-2.9-7.9-1.8-12.3C313.7,387,320.5,381.9,328,381.9L328,381.9z
				 M328,408.4c4.5,0,8.5-3,9.6-7.6c1.3-5.3-2-10.7-7.3-12c-0.8-0.2-1.6-0.3-2.3-0.3c-4.5,0-8.5,3-9.6,7.6c-1.3,5.3,2,10.7,7.3,12
				C326.4,408.3,327.2,408.4,328,408.4L328,408.4z M328,380c-8.5,0-15.9,5.8-17.9,14.1c-1,4.1-0.5,8.4,1.3,12.3
				c-3.9,3.4-11,9.6-11.9,10.3c-2.2,1.9-3.3,5.2-1,8c1.1,1.4,2.7,2.2,4.6,2.2c1.4,0,2.8-0.5,3.9-1.3c0.7-0.5,4.9-4.1,12.5-10.8
				c1.4,0.7,2.8,1.3,4.3,1.6c1.4,0.3,2.9,0.5,4.4,0.5c8.5,0,15.9-5.8,17.9-14.1c2.4-9.9-3.7-19.9-13.6-22.3
				C330.9,380.2,329.4,380,328,380L328,380z M328,406.4c-0.6,0-1.3-0.1-1.9-0.2c-2.1-0.5-3.8-1.8-4.9-3.6c-1.1-1.8-1.4-4-0.9-6
				c0.9-3.6,4.1-6.1,7.8-6.1c0.6,0,1.3,0.1,1.9,0.2c4.3,1,6.9,5.4,5.9,9.6C334.9,403.9,331.7,406.4,328,406.4L328,406.4z"/>
		</g>
	</g>
	<g>
		<g>
			<g>
				<path class="st1" d="M191.7,311.1c0.2,0,0.3,0,0.4,0.1l4.9,2c0.5,0.2,0.9,0.8,0.9,1.4l-0.3,4.6c0,0.5,0.3,1.3,0.7,1.6l1.7,1.6
					c0.3,0.4,1,0.6,1.5,0.6c0.1,0,0.1,0,0.1,0l4.6-0.5c0,0,0.1,0,0.1,0c0.5,0,1.1,0.3,1.3,0.8l2.1,4.8c0.2,0.5,0.1,1.2-0.4,1.6
					l-3.5,3.1c-0.4,0.4-0.7,1.1-0.7,1.6l0,2.3c0,0.5,0.3,1.3,0.7,1.6l3.6,2.9c0.4,0.3,0.6,1,0.4,1.5l-2,4.9
					c-0.2,0.5-0.8,0.9-1.3,0.9c0,0,0,0-0.1,0l-4.6-0.3c0,0-0.1,0-0.1,0c-0.5,0-1.2,0.3-1.6,0.7l-1.6,1.7c-0.4,0.4-0.7,1.1-0.6,1.7
					l0.5,4.6c0.1,0.5-0.3,1.2-0.8,1.4l-4.8,2.1c-0.2,0.1-0.3,0.1-0.5,0.1c-0.4,0-0.8-0.2-1.1-0.4l-3.1-3.5c-0.3-0.4-1-0.7-1.6-0.7
					c0,0-0.1,0-0.1,0l-2.3,0c0,0,0,0,0,0c-0.5,0-1.2,0.3-1.6,0.7l-2.9,3.6c-0.2,0.3-0.7,0.5-1.1,0.5c-0.2,0-0.3,0-0.4-0.1l-4.9-2
					c-0.5-0.2-0.9-0.8-0.9-1.4l0.3-4.6c0-0.5-0.3-1.3-0.7-1.6l-1.7-1.6c-0.3-0.4-1-0.6-1.5-0.6c-0.1,0-0.1,0-0.2,0l-4.6,0.5
					c0,0-0.1,0-0.1,0c-0.5,0-1.1-0.3-1.3-0.8l-2.1-4.8c-0.2-0.5-0.1-1.2,0.4-1.6l3.5-3.1c0.4-0.4,0.7-1.1,0.7-1.6l0-2.3
					c0-0.5-0.3-1.3-0.7-1.6l-3.6-2.9c-0.4-0.3-0.6-1-0.4-1.5l2-4.9c0.2-0.5,0.8-0.9,1.3-0.9c0,0,0,0,0.1,0l4.6,0.3c0,0,0.1,0,0.1,0
					c0.5,0,1.2-0.3,1.6-0.7l1.6-1.7c0.4-0.4,0.7-1.1,0.6-1.7l-0.5-4.6c-0.1-0.5,0.3-1.2,0.8-1.4l4.8-2.1c0.2-0.1,0.3-0.1,0.5-0.1
					c0.4,0,0.8,0.2,1.1,0.5l3.1,3.5c0.3,0.4,1,0.7,1.6,0.7c0,0,0.1,0,0.1,0l2.3,0c0,0,0,0,0.1,0c0.5,0,1.2-0.3,1.6-0.7l2.9-3.6
					C190.9,311.3,191.3,311.1,191.7,311.1L191.7,311.1z M185.2,344.7c3.5,0,6.8-2.1,8.2-5.5c1.8-4.5-0.4-9.6-4.9-11.4
					c-1.1-0.4-2.2-0.6-3.3-0.6c-3.5,0-6.8,2.1-8.2,5.5c-1.8,4.5,0.4,9.6,4.9,11.4C183.1,344.5,184.2,344.7,185.2,344.7L185.2,344.7z
					 M191.7,309.2L191.7,309.2c-1,0-2,0.5-2.6,1.2l-2.9,3.6c0,0-0.1,0-0.1,0.1c0,0,0,0,0,0c0,0,0,0,0,0l-2.3,0c0,0,0,0,0,0
					c0,0-0.1,0-0.2-0.1l-3-3.4c-0.6-0.7-1.6-1.1-2.5-1.1c-0.4,0-0.9,0.1-1.2,0.2l-4.9,2.1c-1.3,0.5-2.1,2-2,3.4l0.5,4.5
					c0,0,0,0.1,0,0.1c0,0,0,0,0,0l-1.6,1.7c0,0,0,0-0.1,0.1c0,0,0,0,0,0c0,0-0.1,0-0.1,0l-4.6-0.3c0,0-0.2,0-0.2,0
					c-1.3,0-2.6,0.9-3.1,2.1l-2,4.9c-0.5,1.3-0.1,2.9,1,3.8l3.6,2.9c0,0,0,0.1,0.1,0.1c0,0,0,0,0,0l0,2.3c0,0,0,0,0,0.1
					c0,0,0,0.1-0.1,0.1l-3.5,3c-1,0.9-1.4,2.5-0.9,3.8l2.1,4.8c0.5,1.2,1.7,2,3,2c0.1,0,0.2,0,0.3,0l4.5-0.5c0,0,0.1,0,0.1,0
					c0,0,0,0,0,0l1.7,1.6c0,0,0,0,0,0c0,0,0.1,0.1,0.1,0.2l-0.3,4.6c-0.1,1.4,0.8,2.8,2.1,3.3l4.9,2c0.4,0.1,0.8,0.2,1.2,0.2
					c1,0,2-0.5,2.6-1.2l2.9-3.6c0,0,0.1-0.1,0.1-0.1l2.3,0c0,0,0.1,0,0.1,0c0,0,0.1,0,0.1,0.1l3,3.4c0.6,0.7,1.5,1.1,2.5,1.1
					c0.4,0,0.9-0.1,1.3-0.3l4.8-2.1c1.3-0.5,2.1-2,2-3.3l-0.5-4.5c0,0,0-0.1,0.1-0.1l1.6-1.7c0,0,0,0,0.1-0.1c0,0,0,0,0,0
					c0,0,0.1,0,0.1,0l4.6,0.3c0,0,0.2,0,0.2,0c1.3,0,2.6-0.8,3.1-2.1l2-4.9c0.5-1.3,0.1-2.9-1-3.8l-3.6-2.9c0,0,0-0.1-0.1-0.1
					c0,0,0,0,0,0l0-2.3c0,0,0,0,0-0.1c0,0,0-0.1,0.1-0.1l3.5-3c1-0.9,1.4-2.5,0.9-3.8l-2.1-4.9c-0.5-1.2-1.7-2-3-2
					c-0.1,0-0.2,0-0.3,0l-4.5,0.5c0,0-0.1,0-0.1,0c0,0,0,0,0,0l-1.7-1.6c0,0,0,0,0,0c0,0,0-0.1-0.1-0.1l0.3-4.6
					c0.1-1.4-0.8-2.8-2.1-3.3l-4.9-2C192.5,309.3,192.1,309.2,191.7,309.2L191.7,309.2L191.7,309.2z M185.2,342.7
					c-0.9,0-1.7-0.2-2.5-0.5c-3.5-1.4-5.2-5.4-3.8-8.9c1.1-2.6,3.6-4.3,6.4-4.3c0.9,0,1.7,0.2,2.5,0.5c1.7,0.7,3,2,3.8,3.7
					s0.7,3.6,0.1,5.3C190.6,341,188.1,342.7,185.2,342.7L185.2,342.7z"/>
			</g>
		</g>
	</g>
	<g>
		<path class="st1" d="M75.6,624.4c0.7,0,1.4,0.3,1.9,0.8l4.1,4.1c1,1,1,2.7,0,3.8l-8.7,8.7c-0.3,0.3-0.5,0.7-0.6,1.1
			c-0.3,0.9-0.1,2,0.6,2.7l8.7,8.6c1,1,1,2.7,0,3.8l-4.1,4.1c-0.5,0.5-1.2,0.8-1.9,0.8c-0.7,0-1.4-0.3-1.9-0.8l-8.6-8.7
			c-0.5-0.5-1.2-0.8-1.9-0.8s-1.4,0.3-1.9,0.8l-8.7,8.7c-0.5,0.5-1.2,0.8-1.9,0.8c-0.7,0-1.4-0.3-1.9-0.8l-4.1-4.1c-1-1-1-2.7,0-3.8
			l8.6-8.6c0.7-0.7,0.9-1.8,0.6-2.7c-0.1-0.4-0.3-0.8-0.6-1.1l-8.6-8.6c-1-1-1-2.7,0-3.8l4.1-4.1c0.5-0.5,1.2-0.8,1.9-0.8
			c0.7,0,1.4,0.3,1.9,0.8l8.7,8.6c0.5,0.5,1.2,0.8,1.9,0.8s1.4-0.3,1.9-0.8l8.6-8.6C74.2,624.7,74.9,624.4,75.6,624.4L75.6,624.4z
			 M75.6,622.7c-1.2,0-2.2,0.5-3.1,1.3l-8.6,8.6c-0.2,0.2-0.4,0.3-0.7,0.3c-0.3,0-0.5-0.1-0.7-0.3l-8.7-8.6
			c-0.8-0.8-1.9-1.3-3.1-1.3s-2.3,0.5-3.1,1.3l-4.1,4.1c-1.7,1.7-1.7,4.4,0,6.1l8.6,8.6c0.1,0.1,0.2,0.2,0.2,0.4
			c0.1,0.3,0.1,0.7-0.2,1l-8.6,8.6c-1.7,1.7-1.7,4.4,0,6.1l4.1,4.1c0.8,0.8,1.9,1.3,3.1,1.3s2.3-0.5,3.1-1.3l8.7-8.6
			c0.2-0.2,0.4-0.3,0.7-0.3c0.3,0,0.5,0.1,0.7,0.3l8.6,8.6c0.8,0.8,1.9,1.3,3.1,1.3c1.2,0,2.2-0.5,3.1-1.3l4.1-4.1
			c1.7-1.7,1.7-4.4,0-6.1l-8.7-8.6c-0.3-0.3-0.3-0.7-0.2-1c0.1-0.2,0.1-0.3,0.2-0.4l8.7-8.7c1.7-1.7,1.7-4.4,0-6.1l-4.1-4.1
			C77.8,623.2,76.7,622.7,75.6,622.7L75.6,622.7z"/>
	</g>
	<g>
		<g>
			<g>
				<path class="st1" d="M192.5,505.2c0.1,0,0.1,0,0.2,0c3.1,0.3,10.6,1.8,13.9,8.4c0.2,0.5,0.6,1.9,0.6,2.9c0,1.3,0,2.8,0,4.3
					c0,0.7-0.4,1-0.8,1c-0.3,0-0.6-0.2-0.8-0.5c-2.5-3.3-4.8-4.9-6.9-5.6c-0.2-0.1-0.4-0.1-0.6-0.1c-0.5,0-0.8,0.3-0.8,1
					c0,5.2,0,23.3,0,24.3c0,8.1-7.2,11.1-13.7,11.1c-6.5,0-13.1-3.4-13.1-9.9c0-6.5,6.6-10.9,13.1-10.9c2.1,0,5.3,0.1,7.7,1.8
					c0,0,0-25.9,0-26.5C191.2,505.9,191.7,505.2,192.5,505.2L192.5,505.2z M192.5,503.3c-1.8,0-3.2,1.4-3.2,3.2V530
					c-2-0.6-4-0.7-5.8-0.7c-7.2,0-15,4.9-15,12.8c0,7.8,7.5,11.8,15,11.8c7.8,0,15.6-4,15.6-13.1V518c1.6,0.8,3.3,2.3,4.9,4.5
					c0.5,0.7,1.4,1.2,2.4,1.2c1.5,0,2.7-1.2,2.7-2.9v-4.3c0-1.2-0.4-3-0.8-3.8c-3.8-7.4-12.1-9.1-15.4-9.4
					C192.7,503.3,192.6,503.3,192.5,503.3L192.5,503.3z"/>
			</g>
		</g>
	</g>
	<g>
		<g>
			<g>
				<path class="st1" d="M248.4,145.9c0.8,0,1.3,0.7,1.3,2c0,0,0,3.3,0,7.6c0,2.6,1.9,3,3,3c15.3,0,26.7,22.1,10.7,34.1
					c1-10.3-2.8-12.6-11.5-12.6c-2.4,0-2.4,2.2-2.4,2.2l0,8.9c0,1.3-0.6,2-1.5,2c-0.4,0-1-0.2-1.5-0.6l-22.9-20.6
					c-1.6-1.2-1.6-3.2,0-4.4l23.3-20.9C247.4,146.1,247.9,145.9,248.4,145.9L248.4,145.9z M248.4,143.9c-0.9,0-1.8,0.3-2.6,1
					c0,0-0.1,0.1-0.1,0.1L222.4,166c-1.2,0.9-1.9,2.3-1.9,3.7c0,1.4,0.7,2.7,1.9,3.7l22.8,20.6c0,0,0.1,0.1,0.1,0.1
					c0.9,0.7,1.8,1,2.7,1c1.6,0,3.4-1.2,3.4-4l0-8.9c0-0.3,0.1-0.3,0.5-0.3c4.3,0,6.9,0.6,8.2,2.1c1.3,1.5,1.8,4.2,1.4,8.4
					c-0.1,0.8,0.3,1.5,1,1.9c0.3,0.2,0.6,0.2,0.9,0.2c0.4,0,0.8-0.1,1.2-0.4c7.5-5.6,10.3-14.1,7.4-22.7
					c-2.9-8.7-10.8-14.9-19.2-14.9c-0.9,0-1-0.2-1-1v-7.6C251.6,145.2,250,143.9,248.4,143.9L248.4,143.9z"/>
			</g>
		</g>
	</g>
	<g>
		<g>
			<g>
				<g>
					<path class="st1" d="M1022.6,158.9c5.8,0,12.7,1.3,14.7,7.9c1.8,6.2-2.1,12.3-6,15.3c-2.7,2.2-5.7,6.9-6.1,9.7
						c-0.1,0.5-0.3,1.6-1.7,1.6c-1.4,0-1,0-2.1,0c-1.1,0-1.5-1.1-1.5-1.7c-0.1-3.4-1-6.9,2-10.4c2.5-3,5-5.8,5-8.4
						c0-2.7-2-5.1-5.9-5.2c-1.9,0-4.5,0.7-6.4,1.7c-0.3,0.2-0.7,0.3-1.1,0.3c-0.5,0-1.1-0.2-1.5-1c-0.7-1.4-1.2-2.4-1.7-3.5
						c-0.5-1.1,0-1.9,0.7-2.3C1013.9,161.1,1016.9,158.9,1022.6,158.9L1022.6,158.9z M1022.6,157c-5.9,0-9.2,2.1-12.1,4l-0.6,0.4
						c-1.7,1.1-2.3,3-1.4,4.8l0.4,0.8c0.4,0.8,0.8,1.7,1.3,2.7c0.7,1.3,1.8,2.1,3.2,2.1c0.9,0,1.6-0.3,2-0.5
						c1.7-0.9,3.9-1.5,5.5-1.5c2.5,0,4,1.3,4,3.3c0,1.6-2,4-3.9,6.3l-0.7,0.8c-2.9,3.5-2.7,7-2.5,9.9c0,0.6,0.1,1.2,0.1,1.8
						c0,1.7,1.4,3.6,3.5,3.6c0.5,0,0.7,0,0.9,0c0.2,0,0.4,0,1.1,0c0.7,0,3.1-0.2,3.6-3.2c0.4-2.4,3.1-6.7,5.4-8.6
						c4.7-3.8,8.6-10.6,6.6-17.4C1037.9,162.1,1034.1,157,1022.6,157L1022.6,157z"/>
				</g>
				<path class="st1" d="M1022.6,199.8c2.2,0,4,1.8,4,4c0,2.2-1.8,4-4,4c-2.2,0-4-1.8-4-4C1018.6,201.6,1020.4,199.8,1022.6,199.8
					L1022.6,199.8z M1022.6,197.9c-3.3,0-6,2.7-6,6c0,3.3,2.7,6,6,6c3.3,0,6-2.7,6-6C1028.6,200.6,1025.9,197.9,1022.6,197.9
					L1022.6,197.9z"/>
			</g>
		</g>
	</g>
	<g>
		<g>
			<g>
				<g>
					<g>
						<path class="st1" d="M285.2,626.2v22h15.7v17.2h-55.4v-20.1h15.6v-19.1H285.2L285.2,626.2z M285.2,624h-24.1
							c-1.2,0-2.2,1-2.2,2.2v17h-13.5c-1.2,0-2.2,1-2.2,2.2v20.1c0,1.2,1,2.2,2.2,2.2h55.4c1.2,0,2.2-1,2.2-2.2v-17.2
							c0-1.2-1-2.2-2.2-2.2h-13.5v-19.8C287.4,625,286.4,624,285.2,624L285.2,624z"/>
					</g>
				</g>
			</g>
		</g>
		<g>
			<path class="st1" d="M276,657.6h-2.5v-17.1l-5.1,4v-2.9l6-4.8h1.6V657.6z"/>
		</g>
	</g>
	<g>
		<path class="st1" d="M748,546.3c0.6,0,1.2,0.5,1.6,1.6l4.2,10.2c0.9,2.2,3.5,4.1,5.8,4.3l11.3,1c2.3,0.2,2.8,1.7,1.2,3.3l-8.5,8.3
			c-1.7,1.6-2.6,4.8-2.1,7.1l2.2,9.5c0.4,1.6-0.2,2.6-1.3,2.6c-0.4,0-0.9-0.1-1.5-0.4l-9.3-4.9c-1-0.5-2.4-0.8-3.7-0.8
			c-1.4,0-2.7,0.3-3.7,0.8l-9.3,4.9c-0.6,0.3-1.1,0.4-1.5,0.4c-1.1,0-1.7-1-1.3-2.6l2.3-9.5c0.5-2.3-0.4-5.4-2.1-7.1l-8.5-8.3
			c-1.7-1.6-1.1-3.1,1.2-3.3l11.3-1c2.3-0.2,4.9-2.1,5.8-4.3l4.2-10.2C746.8,546.9,747.4,546.3,748,546.3L748,546.3z M748,544.4
			c-0.8,0-2.4,0.4-3.4,2.8l-4.2,10.2c-0.6,1.5-2.6,3-4.2,3.1l-11.3,1c-2.7,0.2-3.5,1.8-3.7,2.4c-0.2,0.6-0.6,2.3,1.4,4.2l8.5,8.3
			c1.2,1.1,1.9,3.6,1.5,5.3l-2.3,9.5c-0.5,1.9,0.1,3.1,0.6,3.8c0.6,0.8,1.5,1.2,2.6,1.2c0.8,0,1.6-0.2,2.4-0.7l9.3-4.9
			c0.7-0.4,1.8-0.6,2.8-0.6c1.1,0,2.1,0.2,2.8,0.6l9.3,4.9c0.8,0.4,1.7,0.7,2.4,0.7c1,0,2-0.4,2.6-1.2c0.5-0.7,1-1.8,0.6-3.8
			l-2.2-9.5c-0.4-1.6,0.3-4.1,1.5-5.2l8.5-8.3c1.9-1.9,1.6-3.6,1.4-4.2c-0.2-0.6-1.1-2.2-3.7-2.4l-11.3-1c-1.6-0.1-3.6-1.6-4.2-3.1
			l-4.2-10.2C750.4,544.8,748.8,544.4,748,544.4L748,544.4z"/>
	</g>
	<g>
		<path class="st1" d="M840.3,325.9c3.9,0,7,3.2,7,7v18.7c0,3.4-2.4,6.2-5.6,6.9c0.3,3,2.1,5.3,5.2,7.3c-1.2,0.5-2.5,0.7-3.8,0.7
			c-5.4,0-11-3.8-12.6-7.9h-25.3c-3.9,0-7-3.2-7-7v-18.7c0-3.9,3.2-7,7-7H840.3L840.3,325.9z M836.4,347.3c2.7,0,4.8-2.2,4.8-4.8
			c0-2.7-2.2-4.8-4.8-4.8c-2.7,0-4.8,2.2-4.8,4.8C831.6,345.1,833.8,347.3,836.4,347.3L836.4,347.3z M822.7,347.3
			c2.7,0,4.8-2.2,4.8-4.8c0-2.7-2.2-4.8-4.8-4.8c-2.7,0-4.8,2.2-4.8,4.8C817.9,345.1,820.1,347.3,822.7,347.3L822.7,347.3z
			 M809.2,347.3c2.7,0,4.8-2.2,4.8-4.8c0-2.7-2.2-4.8-4.8-4.8c-2.7,0-4.8,2.2-4.8,4.8C804.4,345.1,806.5,347.3,809.2,347.3
			L809.2,347.3z M840.3,323.6h-35.1c-5.1,0-9.3,4.2-9.3,9.3v18.7c0,5.1,4.2,9.3,9.3,9.3h23.9c2.6,4.4,8.6,7.9,14,7.9
			c1.6,0,3.2-0.3,4.6-0.8c0.8-0.3,1.3-1,1.4-1.9c0.1-0.8-0.3-1.7-1-2.1c-2-1.2-3.2-2.5-3.8-4c3.1-1.5,5.2-4.7,5.2-8.3v-18.7
			C849.5,327.8,845.4,323.6,840.3,323.6L840.3,323.6z M836.4,345c-1.4,0-2.6-1.2-2.6-2.6c0-1.4,1.2-2.6,2.6-2.6
			c1.4,0,2.6,1.2,2.6,2.6C839,343.9,837.8,345,836.4,345L836.4,345z M822.7,345c-1.4,0-2.6-1.2-2.6-2.6c0-1.4,1.2-2.6,2.6-2.6
			c1.4,0,2.6,1.2,2.6,2.6C825.3,343.9,824.1,345,822.7,345L822.7,345z M809.2,345c-1.4,0-2.6-1.2-2.6-2.6c0-1.4,1.2-2.6,2.6-2.6
			c1.4,0,2.6,1.2,2.6,2.6C811.7,343.9,810.6,345,809.2,345L809.2,345z"/>
	</g>
	<g>
		<g>
			<g>
				<path class="st1" d="M895.2,587.8c0.2,0,0.3,0,0.4,0.1l4.9,2c0.5,0.2,0.9,0.8,0.9,1.4l-0.3,4.6c0,0.5,0.3,1.3,0.7,1.6l1.7,1.6
					c0.3,0.4,1,0.6,1.5,0.6c0.1,0,0.1,0,0.1,0l4.6-0.5c0,0,0.1,0,0.1,0c0.5,0,1.1,0.3,1.3,0.8l2.1,4.8c0.2,0.5,0.1,1.2-0.4,1.6
					l-3.5,3.1c-0.4,0.4-0.7,1.1-0.7,1.6l0,2.3c0,0.5,0.3,1.3,0.7,1.6l3.6,2.9c0.4,0.3,0.6,1,0.4,1.5l-2,4.9
					c-0.2,0.5-0.8,0.9-1.3,0.9c0,0,0,0-0.1,0l-4.6-0.3c0,0-0.1,0-0.1,0c-0.5,0-1.2,0.3-1.6,0.7l-1.6,1.7c-0.4,0.4-0.7,1.1-0.6,1.7
					l0.5,4.6c0.1,0.5-0.3,1.2-0.8,1.4l-4.8,2.1c-0.2,0.1-0.3,0.1-0.5,0.1c-0.4,0-0.8-0.2-1.1-0.4l-3.1-3.5c-0.3-0.4-1-0.7-1.6-0.7
					c0,0-0.1,0-0.1,0l-2.3,0c0,0,0,0,0,0c-0.5,0-1.2,0.3-1.6,0.7l-2.9,3.6c-0.2,0.3-0.7,0.5-1.1,0.5c-0.2,0-0.3,0-0.4-0.1l-4.9-2
					c-0.5-0.2-0.9-0.8-0.9-1.4l0.3-4.6c0-0.5-0.3-1.3-0.7-1.6L874,626c-0.3-0.4-1-0.6-1.5-0.6c-0.1,0-0.1,0-0.2,0l-4.6,0.5
					c0,0-0.1,0-0.1,0c-0.5,0-1.1-0.3-1.3-0.8l-2.1-4.8c-0.2-0.5-0.1-1.2,0.4-1.6l3.5-3.1c0.4-0.4,0.7-1.1,0.7-1.6l0-2.3
					c0-0.5-0.3-1.3-0.7-1.6l-3.6-2.9c-0.4-0.3-0.6-1-0.4-1.5l2-4.9c0.2-0.5,0.8-0.9,1.3-0.9c0,0,0,0,0.1,0l4.6,0.3c0,0,0.1,0,0.1,0
					c0.5,0,1.2-0.3,1.6-0.7l1.6-1.7c0.4-0.4,0.7-1.1,0.6-1.7l-0.5-4.6c-0.1-0.5,0.3-1.2,0.8-1.4l4.8-2.1c0.2-0.1,0.3-0.1,0.5-0.1
					c0.4,0,0.8,0.2,1.1,0.5l3.1,3.5c0.3,0.4,1,0.7,1.6,0.7c0,0,0.1,0,0.1,0l2.3,0c0,0,0,0,0.1,0c0.5,0,1.2-0.3,1.6-0.7l2.9-3.6
					C894.3,588,894.8,587.8,895.2,587.8L895.2,587.8z M888.7,621.4c3.5,0,6.8-2.1,8.2-5.5c1.8-4.5-0.4-9.6-4.9-11.4
					c-1.1-0.4-2.2-0.6-3.3-0.6c-3.5,0-6.8,2.1-8.2,5.5c-1.8,4.5,0.4,9.6,4.9,11.4C886.5,621.2,887.6,621.4,888.7,621.4L888.7,621.4z
					 M895.2,585.9L895.2,585.9c-1,0-2,0.5-2.6,1.2l-2.9,3.6c0,0-0.1,0-0.1,0.1c0,0,0,0,0,0c0,0,0,0,0,0l-2.3,0c0,0,0,0,0,0
					c0,0-0.1,0-0.2-0.1l-3-3.4c-0.6-0.7-1.6-1.1-2.5-1.1c-0.4,0-0.9,0.1-1.2,0.2l-4.9,2.1c-1.3,0.5-2.1,2-2,3.4l0.5,4.5
					c0,0,0,0.1,0,0.1c0,0,0,0,0,0l-1.6,1.7c0,0,0,0-0.1,0.1c0,0,0,0,0,0c0,0-0.1,0-0.1,0l-4.6-0.3c0,0-0.2,0-0.2,0
					c-1.3,0-2.6,0.9-3.1,2.1l-2,4.9c-0.5,1.3-0.1,2.9,1,3.8l3.6,2.9c0,0,0,0.1,0.1,0.1c0,0,0,0,0,0l0,2.3c0,0,0,0,0,0.1
					c0,0,0,0.1-0.1,0.1l-3.5,3c-1,0.9-1.4,2.5-0.9,3.8l2.1,4.8c0.5,1.2,1.7,2,3,2c0.1,0,0.2,0,0.3,0l4.5-0.5c0,0,0.1,0,0.1,0
					c0,0,0,0,0,0l1.7,1.6c0,0,0,0,0,0c0,0,0.1,0.1,0.1,0.2l-0.3,4.6c-0.1,1.4,0.8,2.8,2.1,3.3l4.9,2c0.4,0.1,0.8,0.2,1.2,0.2
					c1,0,2-0.5,2.6-1.2l2.9-3.6c0,0,0.1-0.1,0.1-0.1l2.3,0c0,0,0.1,0,0.1,0c0,0,0.1,0,0.1,0.1l3,3.4c0.6,0.7,1.5,1.1,2.5,1.1
					c0.4,0,0.9-0.1,1.3-0.3l4.8-2.1c1.3-0.5,2.1-2,2-3.3l-0.5-4.5c0,0,0-0.1,0.1-0.1l1.6-1.7c0,0,0,0,0.1-0.1c0,0,0,0,0,0
					c0,0,0.1,0,0.1,0l4.6,0.3c0,0,0.2,0,0.2,0c1.3,0,2.6-0.8,3.1-2.1l2-4.9c0.5-1.3,0.1-2.9-1-3.8l-3.6-2.9c0,0,0-0.1-0.1-0.1
					c0,0,0,0,0,0l0-2.3c0,0,0,0,0-0.1c0,0,0-0.1,0.1-0.1l3.5-3c1-0.9,1.4-2.5,0.9-3.8l-2.1-4.9c-0.5-1.2-1.7-2-3-2
					c-0.1,0-0.2,0-0.3,0l-4.5,0.5c0,0-0.1,0-0.1,0c0,0,0,0,0,0l-1.7-1.6c0,0,0,0,0,0c0,0,0-0.1-0.1-0.1l0.3-4.6
					c0.1-1.4-0.8-2.8-2.1-3.3l-4.9-2C896,586,895.6,585.9,895.2,585.9L895.2,585.9L895.2,585.9z M888.7,619.4
					c-0.9,0-1.7-0.2-2.5-0.5c-3.5-1.4-5.2-5.4-3.8-8.9c1.1-2.6,3.6-4.3,6.4-4.3c0.9,0,1.7,0.2,2.5,0.5c1.7,0.7,3,2,3.8,3.7
					c0.7,1.7,0.7,3.6,0.1,5.3C894,617.7,891.5,619.4,888.7,619.4L888.7,619.4z"/>
			</g>
		</g>
	</g>
	<g>
		<g>
			<g>
				<path class="st1" d="M566.1,633.3c8.7,0.1,15.8,7.2,15.8,15.9c0,8.8-7.1,15.9-15.9,15.9c-6.6,0-12.2-4-14.6-9.7h-9
					c-2.4,5.7-8.1,9.7-14.6,9.7c-8.8,0-15.9-7.1-15.9-15.9c0-8.6,6.9-15.7,15.4-15.9v0H566.1L566.1,633.3z M566.1,630.5h-38.8
					c-0.1,0-0.1,0-0.2,0c-10.1,0.4-18,8.5-18,18.6c0,10.3,8.4,18.7,18.7,18.7c6.9,0,13.1-3.7,16.4-9.7h5.5c3.2,5.9,9.5,9.7,16.4,9.7
					c10.3,0,18.7-8.4,18.7-18.7C584.6,639,576.3,630.6,566.1,630.5C566.1,630.5,566.1,630.5,566.1,630.5L566.1,630.5z"/>
			</g>
		</g>
		<path class="st1" d="M534.6,650.9h-4.5v4.4c0,1.2-1,2.2-2.2,2.2c-1.2,0-2.2-1-2.2-2.2v-4.4h-4.2c-1.2,0-2.2-1-2.2-2.2
			c0-1.2,1-2.2,2.2-2.2h4.2v-4.5c0-1.2,1-2.2,2.2-2.2c1.2,0,2.2,1,2.2,2.2v4.5h4.5c1.2,0,2.2,1,2.2,2.2
			C536.9,650,535.9,650.9,534.6,650.9z"/>
		<path class="st1" d="M560.7,651.8c-1.6,0-2.9-1.3-2.9-2.9c0-1.6,1.3-2.9,2.9-2.9c1.6,0,2.9,1.3,2.9,2.9
			C563.6,650.5,562.3,651.8,560.7,651.8z"/>
		<path class="st1" d="M566.9,658c-1.6,0-2.9-1.3-2.9-2.9c0-1.6,1.3-2.9,2.9-2.9c1.6,0,2.9,1.3,2.9,2.9
			C569.8,656.7,568.5,658,566.9,658z"/>
		<path class="st1" d="M566.9,645.7c-1.6,0-2.9-1.3-2.9-2.9c0-1.6,1.3-2.9,2.9-2.9c1.6,0,2.9,1.3,2.9,2.9
			C569.8,644.4,568.5,645.7,566.9,645.7z"/>
		<path class="st1" d="M573.1,651.8c-1.6,0-2.9-1.3-2.9-2.9c0-1.6,1.3-2.9,2.9-2.9c1.6,0,2.9,1.3,2.9,2.9
			C576,650.5,574.7,651.8,573.1,651.8z"/>
	</g>
	<g>
		<path class="st1" d="M1067.5,419.1c0.8,0,1.5,0.3,2.1,0.9l4.7,4.7c1.2,1.2,1.2,3.1,0,4.3l-9.8,9.8c-0.3,0.3-0.6,0.8-0.7,1.2
			c-0.3,1-0.1,2.2,0.7,3.1l9.8,9.8c1.2,1.2,1.2,3.1,0,4.3l-4.7,4.7c-0.6,0.6-1.4,0.9-2.1,0.9c-0.8,0-1.5-0.3-2.1-0.9l-9.8-9.8
			c-0.6-0.6-1.4-0.9-2.1-0.9s-1.6,0.3-2.1,0.9l-9.8,9.8c-0.6,0.6-1.4,0.9-2.1,0.9s-1.6-0.3-2.1-0.9l-4.7-4.7c-1.2-1.2-1.2-3.1,0-4.3
			l9.8-9.8c0.8-0.8,1.1-2,0.7-3.1c-0.1-0.4-0.4-0.9-0.7-1.2l-9.8-9.8c-1.2-1.2-1.2-3.1,0-4.3l4.7-4.7c0.6-0.6,1.4-0.9,2.1-0.9
			s1.6,0.3,2.1,0.9l9.8,9.8c0.6,0.6,1.4,0.9,2.1,0.9s1.6-0.3,2.1-0.9l9.8-9.8C1065.9,419.4,1066.7,419.1,1067.5,419.1L1067.5,419.1z
			 M1067.5,417.2c-1.3,0-2.5,0.5-3.5,1.4l-9.8,9.8c-0.2,0.2-0.5,0.3-0.8,0.3c-0.3,0-0.6-0.1-0.8-0.3l-9.8-9.8
			c-0.9-0.9-2.2-1.4-3.5-1.4s-2.6,0.5-3.5,1.4l-4.7,4.7c-1.9,1.9-1.9,5,0,7l9.8,9.8c0.1,0.1,0.2,0.3,0.3,0.5
			c0.1,0.3,0.1,0.8-0.3,1.2l-9.8,9.8c-1.9,1.9-1.9,5,0,7l4.7,4.7c0.9,0.9,2.2,1.4,3.5,1.4s2.6-0.5,3.5-1.4l9.8-9.8
			c0.2-0.2,0.5-0.3,0.8-0.3c0.3,0,0.6,0.1,0.8,0.3l9.8,9.8c0.9,0.9,2.2,1.4,3.5,1.4c1.3,0,2.5-0.5,3.5-1.4l4.7-4.7
			c1.9-1.9,1.9-5,0-7l-9.8-9.8c-0.4-0.4-0.4-0.8-0.3-1.2c0.1-0.2,0.1-0.3,0.3-0.5l9.8-9.8c1.9-1.9,1.9-5,0-6.9l-4.7-4.7
			C1070,417.7,1068.8,417.2,1067.5,417.2L1067.5,417.2z"/>
	</g>
	<g>
		<g>
			<g>
				<g>
					<g>
						<path class="st1" d="M946.6,500v19.7h14v15.4H911v-18h14V500H946.6L946.6,500z M946.6,498H925c-1.1,0-2,0.9-2,2v15.2H911
							c-1.1,0-2,0.9-2,2v18c0,1.1,0.9,2,2,2h49.6c1.1,0,2-0.9,2-2v-15.4c0-1.1-0.9-2-2-2h-12.1V500C948.5,498.9,947.7,498,946.6,498
							L946.6,498z"/>
					</g>
				</g>
			</g>
		</g>
		<g>
			<path class="st1" d="M938.3,528.1h-2.3v-15.3l-4.5,3.6v-2.6l5.3-4.3h1.5V528.1z"/>
		</g>
	</g>
</g>
</svg>
