<?xml version="1.0" encoding="utf-8"?>
<!-- Generator: Adobe Illustrator 19.0.0, SVG Export Plug-In . SVG Version: 6.00 Build 0)  -->
<svg version="1.1" xmlns="http://www.w3.org/2000/svg" xmlns:xlink="http://www.w3.org/1999/xlink" x="0px" y="0px"
	 viewBox="0 0 51 51" style="enable-background:new 0 0 51 51;" xml:space="preserve">
<style type="text/css">
	.st0{fill:#FFFFFF;}
</style>
<g id="Background">
</g>
<g id="Capa_1">
	<path class="st0" d="M42.8,24c1.3-1.3,1.1-2.4,0.9-2.9c-0.2-0.4-0.7-1.5-2.5-1.6l-7.7-0.7c-1.1-0.1-2.4-1.1-2.9-2.1l-2.8-6.9
		C27.1,8.2,26.1,8,25.5,8c-0.6,0-1.6,0.2-2.3,1.9l-2.8,6.9c-0.4,1-1.8,2-2.9,2.1l-7.7,0.7c-1.8,0.2-2.4,1.2-2.5,1.6
		c-0.2,0.4-0.4,1.6,0.9,2.9l5.8,5.6c0.8,0.8,1.3,2.5,1,3.6l-1.5,6.4c-0.3,1.3,0,2.1,0.4,2.6c0.4,0.5,1,0.8,1.7,0.8
		c0.5,0,1.1-0.2,1.6-0.5l6.3-3.3c0.5-0.3,1.2-0.4,1.9-0.4c0.7,0,1.4,0.1,1.9,0.4l6.3,3.3c0.6,0.3,1.1,0.5,1.6,0.5
		c0.7,0,1.3-0.3,1.7-0.8c0.3-0.4,0.7-1.2,0.4-2.6L36,33.2c-0.3-1.1,0.2-2.8,1-3.5L42.8,24z M34.7,33.5l1.5,6.4
		c0.3,1.1-0.1,1.8-0.9,1.8c-0.3,0-0.6-0.1-1-0.3L28,38.1c-0.7-0.4-1.6-0.5-2.5-0.5s-1.8,0.2-2.5,0.5l-6.3,3.3
		c-0.4,0.2-0.7,0.3-1,0.3c-0.7,0-1.1-0.6-0.9-1.8l1.5-6.4c0.4-1.5-0.3-3.7-1.4-4.8l-5.8-5.6C8,22,8.4,21,9.9,20.8l7.7-0.7
		c1.6-0.1,3.3-1.4,3.9-2.9l2.8-6.9c0.3-0.7,0.7-1.1,1.1-1.1s0.8,0.4,1.1,1.1l2.8,6.9c0.6,1.5,2.4,2.8,3.9,2.9l7.7,0.7
		c1.6,0.1,1.9,1.2,0.8,2.3l-5.8,5.6C35,29.8,34.3,32,34.7,33.5z"/>
</g>
</svg>
