<?xml version="1.0" encoding="utf-8"?>
<!-- Generator: Adobe Illustrator 19.0.0, SVG Export Plug-In . SVG Version: 6.00 Build 0)  -->
<svg version="1.1" id="Capa_1" xmlns="http://www.w3.org/2000/svg" xmlns:xlink="http://www.w3.org/1999/xlink" x="0px" y="0px"
	 viewBox="0 0 899 244" style="enable-background:new 0 0 899 244;" xml:space="preserve">
<style type="text/css">
	.st0{opacity:0.3;}
	.st1{fill:#845313;}
	.st2{fill:#FFFFFF;}
	.st3{fill:#F49926;}
	.st4{fill:#E94547;}
</style>
<g>
	<g class="st0">
		<path class="st1" d="M348.1,116.8c2.8,3.4,6.3,5.8,10.3,7.1c2.7,0.9,5.5,1.3,8.2,1.3c0.9,0,1.8,0,2.6-0.1c3.6-0.4,7-1.5,10-3.3
			c2.8-1.6,5-3.7,6.7-6.2c1.9,1.8,4,3.5,6.4,4.9c5.3,3.2,11.8,4.9,19.4,4.9c7.5,0,14-1.5,19.4-4.4c3.6-1.9,6.8-4.3,9.5-7
			c0.4,1,1,1.9,1.6,2.8c2.6,3.9,6.3,6.4,10.7,7.2c1.3,0.2,2.7,0.4,4,0.4c2,0,4.1-0.3,6.2-0.8c3.2-0.8,6.1-2.3,8.8-4.2
			c1.9-1.3,3.5-2.8,4.8-4.4c1.9,2.7,4.4,4.9,7.4,6.5c3.8,2.1,8,3.1,12.3,3.1c0.4,0,0.7,0,1.1,0c4.7-0.2,9.2-1.6,13.3-4.3
			c1.3-0.8,2.5-1.8,3.6-2.9c1.4,1.3,3.1,2.5,4.9,3.5c4.7,2.7,10.7,4,18.4,4c3.5,0,6.7-0.6,9.5-1.8c2.3-1,4.4-2.2,6.3-3.8
			c2.8,2.8,7.4,5.6,14.3,5.6c5.3,0,9.5-0.9,13.1-2.7c3.8-1.9,6.7-4.6,8.6-7.8c1.8-3.1,2.8-6.6,2.8-10.2c0-3.1-0.6-6.2-1.6-9
			c-1.1-2.9-2.7-5.5-4.8-7.6c-2.1-2.2-4.3-3.4-6.2-4c0-0.9,0-1.9,0-2.8c0-2.4,0-4.8-0.1-7.3c-0.1-3.2-0.8-6.4-1.9-9.5l0-0.1l0-0.1
			c-1-2.4-2.5-4.6-4.6-7c-1.9-2.2-4.2-4.1-6.8-5.7c-2.8-1.9-5.8-3.3-8.9-4.2c-2.6-0.8-5.3-1.4-8-2c-3.8-0.7-7.3-1.1-10.6-1.1h0
			c-2.4,0-4.7,0.2-6.9,0.6c-5.2,1-9.6,2.7-13.1,5c-0.2,0.1-0.4,0.3-0.6,0.4c-0.7-1.5-1.6-2.9-2.6-4.2c-2.4-2.8-5.6-4.9-9.7-6l-0.1,0
			l-0.1,0c-1.9-0.5-4-0.7-6.3-0.7c-1.7,0-3.6,0.2-5.5,0.4c-4.5,0.7-9,2.6-13.4,5.7c-0.1,0.1-0.2,0.2-0.3,0.2
			c-0.1-0.2-0.3-0.3-0.4-0.5c-2.5-2.9-6-4.7-10.4-5.5c-1.4-0.3-2.9-0.4-4.4-0.4c0,0,0,0,0,0c-2.2,0-4.4,0.3-6.6,0.8
			c-3.6,0.8-7,2.3-10.3,4.4c-3.7,2.4-6.6,5.5-8.6,9.3c-0.2-0.2-0.4-0.3-0.6-0.5c-5.5-4-10.9-6.9-16.1-8.4c-4.5-1.3-8.7-2-12.6-2
			c-0.7,0-1.3,0-2,0.1c-4.7,0.3-9,1.4-12.8,3.4c-3.3,1.7-6.1,3.8-8.3,6.1c-1.9,1.5-3.6,3.4-5.1,5.5c-0.7-1.6-1.6-3-2.5-4.4
			c-1.2-1.7-2.6-3.1-4.2-4.3c3.2-3.5,4.9-7.8,4.9-12.5c0-5-1.9-9.5-5.4-13.1c-3.6-3.6-8.1-5.5-13.1-5.5c-5,0-9.5,1.9-13.1,5.4
			c-3.6,3.6-5.4,8.1-5.4,13.1c0,4.8,1.7,9.1,5,12.6c-0.8,0.4-1.5,0.9-2.2,1.3c-0.3-0.4-0.5-0.7-0.8-1.1l-0.1-0.1l-0.1-0.1
			c-3.2-3.8-7.3-6.6-12.3-8.3c-3.9-1.4-8-2-12.2-2c-0.8,0-1.7,0-2.5,0.1c-5,0.3-10.1,1.6-15.1,3.9c-5.2,2.4-9.8,6-13.7,10.7
			c-3.1,3.6-5.5,7.4-7.4,11.3c-0.1-0.2-0.1-0.4-0.2-0.6l0-0.1l0-0.1c-1-2.4-2.5-4.6-4.6-7c-1.9-2.2-4.2-4.1-6.8-5.7
			c-2.8-1.9-5.8-3.3-8.9-4.2c-2.6-0.8-5.3-1.4-8-2c-3.8-0.7-7.3-1.1-10.6-1.1h0c-2.4,0-4.7,0.2-6.9,0.6c-4.5,0.8-8.3,2.2-11.6,4.1
			c0.1-3.1,0-6-0.2-8.6c-0.4-4.3-1.6-7.8-3.4-10.7l-0.1-0.1l-0.1-0.1c-2.8-4-6.8-6.7-11.7-7.9c-2.3-0.5-4.6-0.8-6.9-0.8
			c-1.7,0-3.4,0.1-5.2,0.4c-3.9,0.7-7.5,2-10.8,3.8c-4.1,2.4-7,5.5-8.4,9.2l-3,7.9l7.1,3.2c0,0.1,0.1,0.3,0.2,0.6
			c0.3,1.2,0.4,2.7,0.5,4.2c-1.4-1.6-2.9-3-4.6-4.3l0,0l0,0c-3.2-2.3-7.1-4.1-11.7-5.2c-3.1-0.8-6.4-1.2-9.7-1.2
			c-1.4,0-2.8,0.1-4.2,0.2c-4.9,0.5-9.7,1.9-14.5,4.2c-1.9,0.9-3.7,2-5.5,3.3c-0.1-2.7-0.5-5.3-1.2-8c-1.6-6-4.7-11.5-9.1-16.3
			c-4.3-4.7-9.9-8.5-16.7-11.3c-6.7-2.8-14.4-4.2-23.1-4.2c-9.3,0-18.1,0.9-25.9,2.8c-8,1.9-15,4.4-21,7.6
			c-6.2,3.3-11.4,7.2-15.4,11.5c-4.4,4.7-7.2,9.8-8.5,15.1c-1.2,5.1-1.3,10.1-0.5,15.2c0.8,4.9,2.4,9.4,4.6,13.4
			c2.4,4.3,5.5,7.8,9.2,10.6c4.1,3.1,8.8,4.8,13.9,5c0.4,0,0.9,0,1.3,0c2.9,0,5.5-0.5,7.8-1.4c-0.9,6.2-1.4,11.1-1.4,15
			c-0.1,5.6,0.6,9.8,2.2,13.1c2.1,4.5,5.8,7.5,10.4,8.6c2.6,0.6,5.6,0.9,9,0.9c3.8,0,6.9-0.5,9.7-1.4c2.5-0.9,4.5-2,6.2-3.3
			c2.9,18,12.3,27.6,20,32.5c9.9,6.3,20.8,7.8,28.1,7.8c0.2,0,0.4,0,0.6,0c10.3,0,20.6-3.5,27.5-9.5c1.6-1.3,2.9-2.7,4-4
			c-0.2,3.3-0.6,6.8-1.1,10.5c-0.7,5.2-1.3,10.3-1.8,15.2c-0.5,5.1-0.7,9.9-0.6,14.3c0.2,5.8,1.5,10.3,3.9,14
			c2.6,3.8,6.1,6.5,10.5,8c2.5,0.9,5.2,1.3,7.8,1.3c1.4,0,2.9-0.1,4.3-0.4c4.1-0.7,8-2.5,11.4-5.3c1.2-1,2.4-2.2,3.4-3.4
			c2.4,2.8,5.3,5.2,8.6,7.3c5.3,3.2,11.8,4.9,19.4,4.9c7.5,0,14-1.5,19.4-4.4c3.9-2.1,7.2-4.6,10-7.6c0.7,1,1.6,2,2.5,2.9
			c2.5,2.4,5.8,4.1,9.8,5.1c3.1,0.8,6.6,1.2,10.3,1.3c0.2,0,0.4,0,0.6,0c3.4,0,7-0.3,10.6-1c3.8-0.7,7.5-1.8,11.1-3.1
			c3.7-1.4,7.2-3.2,10.4-5.3c3.5-2.3,6.4-4.9,8.8-7.9c2.5-3.2,4.2-6.6,5.1-10.2c0.8-3.4,1-6.7,0.5-10c-0.5-3.2-1.5-6.2-3.1-8.9
			c-0.9-1.5-1.9-2.8-3-4c1-1.9,1.7-3.9,2.1-6c0.9-3.9,0.8-7.7-0.3-11.3c-1.2-3.9-3.5-7.3-7.1-10c-3.2-2.5-7.4-4.1-12.3-4.9
			c-1.8-0.3-3.7-0.4-5.7-0.4c-0.9,0-1.9,0-2.9,0.1c-3,0.2-6,0.7-9,1.4c-3,0.7-6,1.8-8.8,3c-3.1,1.3-5.9,3-8.4,4.9l0,0l0,0
			c-3.3,2.6-6,5.6-8,9.1c-1.7-2.2-3.6-4.1-5.8-5.7c-5.5-4-10.9-6.9-16.1-8.4c-4.5-1.3-8.7-2-12.6-2c-0.7,0-1.3,0-2,0.1
			c-4.7,0.3-9,1.4-12.8,3.4c-3.3,1.7-6.1,3.8-8.3,6.1c-0.1,0.1-0.2,0.2-0.3,0.3c0.2-3.8,0.2-7.3-0.1-10.4c-0.2-1.6-0.4-3-0.8-4.4
			c0.8-0.1,1.5-0.2,2.3-0.3c4.3-0.8,8.3-2.6,11.8-5.5c0.4-0.3,0.7-0.6,1-0.9c1.4,1.2,2.9,2.3,4.5,3.2c4.7,2.7,10.7,4,18.4,4
			c3.5,0,6.7-0.6,9.5-1.8c2.3-1,4.4-2.2,6.3-3.8c2.8,2.8,7.4,5.6,14.3,5.6c5.3,0,9.5-0.9,13.1-2.7c3.2-1.6,5.7-3.7,7.6-6.3
			c4.2,3.1,8.7,5.4,13.5,6.7c4.5,1.3,8.9,1.9,13.1,1.9c0.5,0,0.9,0,1.4,0c4.8-0.2,9.2-1,13.2-2.6c4.3-1.7,7.7-4,10.1-6.8
			c0.7-0.7,1.3-1.5,1.8-2.3C346.2,114.2,347.1,115.6,348.1,116.8z"/>
		<path class="st1" d="M891.8,172.2c-0.5-3.3-1.5-6.2-3.1-8.9c-0.9-1.5-1.9-2.8-3-4c1-1.9,1.7-3.9,2.1-6c0.9-3.9,0.8-7.7-0.3-11.3
			c-1.2-3.9-3.5-7.3-7.1-10c-3.2-2.5-7.4-4.1-12.3-4.9c-1.8-0.3-3.7-0.4-5.7-0.4c-0.9,0-1.9,0-2.9,0.1c-3,0.2-6,0.7-9,1.4
			c-3,0.7-6,1.8-8.8,3c-3,1.3-5.9,3-8.4,4.9l0,0l0,0c-3.1,2.4-5.6,5.2-7.6,8.4c-1.5-1.9-3.3-3.6-5.2-5c-5.5-4-10.9-6.9-16.1-8.4
			c-4.5-1.3-8.7-2-12.6-2c-0.7,0-1.3,0-2,0.1c-4.7,0.3-9,1.4-12.8,3.4c-1.7,0.9-3.3,1.9-4.7,3c-0.6-2.4-1.6-4.7-2.8-6.6l-4.7-7.2
			l-1.6,1c-0.5-2-1.2-3.8-2.2-5.3c-1.4-2.3-4.2-5.3-9.2-6.7c-2.1-0.6-4.2-0.9-6.4-0.9c-1.1,0-2.1,0.1-3.2,0.2
			c-3.2,0.4-6.4,1.4-9.3,2.9c-3.4,1.8-6.1,4.2-8.1,7.3l-6,9.5l1.9,0.7c-1,1.1-1.9,2.4-2.7,4.1l0,0c-3.4-3-7.5-5-12.1-6.1
			c-2.4-0.6-4.8-0.9-7.2-0.9c-2.2,0-4.3,0.2-6.5,0.7c-3,0.6-5.8,1.7-8.6,3.3c-2.3-2.1-5.3-3.5-8.7-4c-1-0.1-2-0.2-3-0.2c0,0,0,0,0,0
			c-2.2,0-4.5,0.3-6.8,1c-3.1,0.9-6.2,2.5-9.1,4.6c-1.1,0.8-2,1.6-2.9,2.5c-0.7-0.6-1.4-1.3-2.2-1.8l0,0l0,0c-3-2.2-6.8-3.9-11.2-5
			c-3-0.7-6.1-1.1-9.3-1.1c-1.3,0-2.7,0.1-4.1,0.2c-4.7,0.5-9.3,1.8-13.9,4c-4.8,2.3-9.1,5.8-12.8,10.3c0,0,0,0,0,0
			c-0.8-1.6-1.7-3.1-2.8-4.5l-0.1-0.1l-0.1-0.1c-3.1-3.6-7-6.3-11.8-8c-3.7-1.3-7.6-2-11.7-2c-0.8,0-1.6,0-2.4,0.1
			c-4.8,0.3-9.7,1.6-14.5,3.8c-4.6,2.1-8.6,5.2-12.1,9.1c-0.7-2.2-1.9-4.3-3.4-6.1c-2.3-2.8-5.4-4.7-9.4-5.9l-0.1,0l-0.1,0
			c-1.9-0.5-3.9-0.7-6-0.7c-1.7,0-3.4,0.1-5.3,0.4c-4.3,0.7-8.6,2.5-12.8,5.4c0-0.1-0.1-0.1-0.1-0.2c-2.5-2.8-5.9-4.6-10.1-5.4
			c-1.4-0.2-2.8-0.4-4.3-0.4c-2.1,0-4.2,0.3-6.3,0.8c-3.4,0.8-6.7,2.2-9.9,4.3c-3.6,2.3-6.4,5.4-8.4,9.2l-0.3,0.6
			c-0.9-0.9-1.9-1.7-2.9-2.4c-5.5-4-10.9-6.9-16.1-8.4c-4.5-1.3-8.7-2-12.6-2c-0.7,0-1.3,0-2,0.1c-4.7,0.3-9,1.4-12.8,3.4
			c-3.3,1.7-6.1,3.8-8.3,6.1c-0.6,0.5-1.1,0.9-1.6,1.5c-0.6-1-1.2-2-1.9-2.9l-0.1-0.1l-0.1-0.1c-3.1-3.6-7-6.3-11.8-8
			c-3.7-1.3-7.6-2-11.7-2c-0.8,0-1.6,0-2.4,0.1c-4.8,0.3-9.7,1.6-14.5,3.8c-5,2.3-9.4,5.7-13.1,10.3c-4.3,5.1-7.4,10.5-9.1,16.1
			c-1.7,5.5-2.4,11-2.1,16.2c0.3,5.3,1.7,10.3,4,14.9c2.3,4.6,5.3,8.5,9,11.5l0.1,0l0.1,0c4.4,3.5,9.2,6,14.2,7.5
			c4.3,1.2,8.5,1.8,12.6,1.8c0.4,0,0.9,0,1.3,0c4.6-0.1,8.8-1,12.6-2.5c4.1-1.6,7.4-3.8,9.7-6.5c0.3-0.4,0.6-0.7,0.9-1.1
			c2.6,3.2,5.7,6,9.5,8.3c5.3,3.2,11.8,4.9,19.4,4.9c7.5,0,14-1.5,19.4-4.4c4.7-2.5,8.6-5.7,11.8-9.5c0.5,1.2,1.1,2.4,1.8,3.5
			c2.5,3.8,6.1,6.2,10.5,7c1.3,0.2,2.6,0.3,3.9,0.3c2,0,4-0.3,6-0.8c3-0.8,5.9-2.2,8.5-4c1.6-1.1,3-2.4,4.2-3.8
			c1.8,2.4,4.1,4.3,6.8,5.8c3.7,2,7.7,3,11.8,3c0.3,0,0.7,0,1,0c4.5-0.2,8.8-1.6,12.8-4.2c2.7-1.8,5-4.1,6.8-6.9
			c0.6,0.6,1.2,1.1,1.8,1.6l0.1,0l0.1,0c4.4,3.5,9.2,6,14.2,7.5c4.3,1.2,8.5,1.8,12.6,1.8c0.4,0,0.9,0,1.3,0c4.6-0.1,8.8-1,12.6-2.5
			c4.1-1.6,7.4-3.8,9.7-6.5c0.9-1,1.7-2.1,2.4-3.2c0.2,0.3,0.5,0.6,0.7,0.9c3.9,4.4,8.8,7.6,14.5,9.3c4.3,1.3,8.7,2,13.1,2
			c0.8,0,1.7,0,2.5-0.1c5.2-0.3,10.2-1.4,14.9-3.4c1.4-0.6,2.6-1.2,3.9-1.9c-0.1,2.6,0,5,0.2,7.3c0.5,5.6,2.5,10.3,5.9,14l0,0l0,0
			c3,3.1,6.6,5,10.8,5.8c1.3,0.2,2.7,0.4,4,0.4c2.5,0,5.1-0.4,7.6-1.2c3.6-1.2,7-3.1,10.2-5.8c3.2-2.7,5.9-6.1,7.9-10.2l2.6-5
			c0.6,0,1.2-0.1,1.8-0.1c6.1-0.5,11.5-2.5,16-6c2.9-2.2,5.5-4.8,7.6-7.8c0.8,2.6,2,4.9,3.6,6.9c2.7,3.5,6.7,5.8,11.5,6.7
			c1.5,0.3,3.1,0.4,4.6,0.4c2.6,0,5.4-0.4,8.1-1.2c4.2-1.3,8.1-3.6,11.5-6.7c1.1-1,2-2,2.9-3.2c2.7,3.7,6.1,6.8,10.2,9.3
			c5.3,3.2,11.8,4.9,19.4,4.9c7.5,0,14-1.5,19.4-4.4c3.6-1.9,6.8-4.3,9.5-7c0.6,0.8,1.3,1.6,2.1,2.4c2.5,2.4,5.8,4.1,9.8,5.1
			c3.1,0.8,6.6,1.2,10.3,1.3c0.2,0,0.4,0,0.6,0c3.4,0,7-0.3,10.6-1c3.8-0.7,7.5-1.8,11.1-3.1c3.7-1.4,7.2-3.2,10.4-5.3
			c3.5-2.3,6.4-4.9,8.8-7.9c2.5-3.2,4.2-6.6,5.1-10.2C892.1,178.7,892.3,175.4,891.8,172.2z"/>
	</g>
	<g>
		<path class="st2" d="M348.1,114.8c2.8,3.4,6.3,5.8,10.3,7.1c2.7,0.9,5.5,1.3,8.2,1.3c0.9,0,1.8,0,2.6-0.1c3.6-0.4,7-1.5,10-3.3
			c2.8-1.6,5-3.7,6.7-6.2c1.9,1.8,4,3.5,6.4,4.9c5.3,3.2,11.8,4.9,19.4,4.9c7.5,0,14-1.5,19.4-4.4c3.6-1.9,6.8-4.3,9.5-7
			c0.4,1,1,1.9,1.6,2.8c2.6,3.9,6.3,6.4,10.7,7.2c1.3,0.2,2.7,0.4,4,0.4c2,0,4.1-0.3,6.2-0.8c3.2-0.8,6.1-2.3,8.8-4.2
			c1.9-1.3,3.5-2.8,4.8-4.4c1.9,2.7,4.4,4.9,7.4,6.5c3.8,2.1,8,3.1,12.3,3.1c0.4,0,0.7,0,1.1,0c4.7-0.2,9.2-1.6,13.3-4.3
			c1.3-0.8,2.5-1.8,3.6-2.9c1.4,1.3,3.1,2.5,4.9,3.5c4.7,2.7,10.7,4,18.4,4c3.5,0,6.7-0.6,9.5-1.8c2.3-1,4.4-2.2,6.3-3.8
			c2.8,2.8,7.4,5.6,14.3,5.6c5.3,0,9.5-0.9,13.1-2.7c3.8-1.9,6.7-4.6,8.6-7.8c1.8-3.1,2.8-6.6,2.8-10.2c0-3.1-0.6-6.2-1.6-9
			c-1.1-2.9-2.7-5.5-4.8-7.6c-2.1-2.2-4.3-3.4-6.2-4c0-0.9,0-1.9,0-2.8c0-2.4,0-4.8-0.1-7.3c-0.1-3.2-0.8-6.4-1.9-9.5l0-0.1l0-0.1
			c-1-2.4-2.5-4.6-4.6-7c-1.9-2.2-4.2-4.1-6.8-5.7c-2.8-1.9-5.8-3.3-8.9-4.2c-2.6-0.8-5.3-1.4-8-2c-3.8-0.7-7.3-1.1-10.6-1.1h0
			c-2.4,0-4.7,0.2-6.9,0.6c-5.2,1-9.6,2.7-13.1,5c-0.2,0.1-0.4,0.3-0.6,0.4c-0.7-1.5-1.6-2.9-2.6-4.2c-2.4-2.8-5.6-4.9-9.7-6l-0.1,0
			l-0.1,0c-1.9-0.5-4-0.7-6.3-0.7c-1.7,0-3.6,0.2-5.5,0.4c-4.5,0.7-9,2.6-13.4,5.7c-0.1,0.1-0.2,0.2-0.3,0.2
			c-0.1-0.2-0.3-0.3-0.4-0.5c-2.5-2.9-6-4.7-10.4-5.5c-1.4-0.3-2.9-0.4-4.4-0.4c0,0,0,0,0,0c-2.2,0-4.4,0.3-6.6,0.8
			c-3.6,0.8-7,2.3-10.3,4.4c-3.7,2.4-6.6,5.5-8.6,9.3c-0.2-0.2-0.4-0.3-0.6-0.5c-5.5-4-10.9-6.9-16.1-8.4c-4.5-1.3-8.7-2-12.6-2
			c-0.7,0-1.3,0-2,0.1c-4.7,0.3-9,1.4-12.8,3.4c-3.3,1.7-6.1,3.8-8.3,6.1c-1.9,1.5-3.6,3.4-5.1,5.5c-0.7-1.6-1.6-3-2.5-4.4
			c-1.2-1.7-2.6-3.1-4.2-4.3c3.2-3.5,4.9-7.8,4.9-12.5c0-5-1.9-9.5-5.4-13.1c-3.6-3.6-8.1-5.5-13.1-5.5c-5,0-9.5,1.9-13.1,5.4
			c-3.6,3.6-5.4,8.1-5.4,13.1c0,4.8,1.7,9.1,5,12.6c-0.8,0.4-1.5,0.9-2.2,1.3c-0.3-0.4-0.5-0.7-0.8-1.1l-0.1-0.1l-0.1-0.1
			c-3.2-3.8-7.3-6.6-12.3-8.3c-3.9-1.4-8-2-12.2-2c-0.8,0-1.7,0-2.5,0.1c-5,0.3-10.1,1.6-15.1,3.9c-5.2,2.4-9.8,6-13.7,10.7
			c-3.1,3.6-5.5,7.4-7.4,11.3c-0.1-0.2-0.1-0.4-0.2-0.6l0-0.1l0-0.1c-1-2.4-2.5-4.6-4.6-7c-1.9-2.2-4.2-4.1-6.8-5.7
			c-2.8-1.9-5.8-3.3-8.9-4.2c-2.6-0.8-5.3-1.4-8-2c-3.8-0.7-7.3-1.1-10.6-1.1h0c-2.4,0-4.7,0.2-6.9,0.6c-4.5,0.8-8.3,2.2-11.6,4.1
			c0.1-3.1,0-6-0.2-8.6c-0.4-4.3-1.6-7.8-3.4-10.7l-0.1-0.1l-0.1-0.1c-2.8-4-6.8-6.7-11.7-7.9c-2.3-0.5-4.6-0.8-6.9-0.8
			c-1.7,0-3.4,0.1-5.2,0.4c-3.9,0.7-7.5,2-10.8,3.8c-4.1,2.4-7,5.5-8.4,9.2l-3,7.9l7.1,3.2c0,0.1,0.1,0.3,0.2,0.6
			c0.3,1.2,0.4,2.7,0.5,4.2c-1.4-1.6-2.9-3-4.6-4.3l0,0l0,0c-3.2-2.3-7.1-4.1-11.7-5.2c-3.1-0.8-6.4-1.2-9.7-1.2
			c-1.4,0-2.8,0.1-4.2,0.2c-4.9,0.5-9.7,1.9-14.5,4.2c-1.9,0.9-3.7,2-5.5,3.3c-0.1-2.7-0.5-5.3-1.2-8c-1.6-6-4.7-11.5-9.1-16.3
			c-4.3-4.7-9.9-8.5-16.7-11.3c-6.7-2.8-14.4-4.2-23.1-4.2c-9.3,0-18.1,0.9-25.9,2.8c-8,1.9-15,4.4-21,7.6
			c-6.2,3.3-11.4,7.2-15.4,11.5c-4.4,4.7-7.2,9.8-8.5,15.1c-1.2,5.1-1.3,10.1-0.5,15.2c0.8,4.9,2.4,9.4,4.6,13.4
			c2.4,4.3,5.5,7.8,9.2,10.6c4.1,3.1,8.8,4.8,13.9,5c0.4,0,0.9,0,1.3,0c2.9,0,5.5-0.5,7.8-1.4c-0.9,6.2-1.4,11.1-1.4,15
			c-0.1,5.6,0.6,9.8,2.2,13.1c2.1,4.5,5.8,7.5,10.4,8.6c2.6,0.6,5.6,0.9,9,0.9c3.8,0,6.9-0.5,9.7-1.4c2.5-0.9,4.5-2,6.2-3.3
			c2.9,18,12.3,27.6,20,32.5c9.9,6.3,20.8,7.8,28.1,7.8c0.2,0,0.4,0,0.6,0c10.3,0,20.6-3.5,27.5-9.5c1.6-1.3,2.9-2.7,4-4
			c-0.2,3.3-0.6,6.8-1.1,10.5c-0.7,5.2-1.3,10.3-1.8,15.2c-0.5,5.1-0.7,9.9-0.6,14.3c0.2,5.8,1.5,10.3,3.9,14
			c2.6,3.8,6.1,6.5,10.5,8c2.5,0.9,5.2,1.3,7.8,1.3c1.4,0,2.9-0.1,4.3-0.4c4.1-0.7,8-2.5,11.4-5.3c1.2-1,2.4-2.2,3.4-3.4
			c2.4,2.8,5.3,5.2,8.6,7.3c5.3,3.2,11.8,4.9,19.4,4.9c7.5,0,14-1.5,19.4-4.4c3.9-2.1,7.2-4.6,10-7.6c0.7,1,1.6,2,2.5,2.9
			c2.5,2.4,5.8,4.1,9.8,5.1c3.1,0.8,6.6,1.2,10.3,1.3c0.2,0,0.4,0,0.6,0c3.4,0,7-0.3,10.6-1c3.8-0.7,7.5-1.8,11.1-3.1
			c3.7-1.4,7.2-3.2,10.4-5.3c3.5-2.3,6.4-4.9,8.8-7.9c2.5-3.2,4.2-6.6,5.1-10.2c0.8-3.4,1-6.7,0.5-10c-0.5-3.2-1.5-6.2-3.1-8.9
			c-0.9-1.5-1.9-2.8-3-4c1-1.9,1.7-3.9,2.1-6c0.9-3.9,0.8-7.7-0.3-11.3c-1.2-3.9-3.5-7.3-7.1-10c-3.2-2.5-7.4-4.1-12.3-4.9
			c-1.8-0.3-3.7-0.4-5.7-0.4c-0.9,0-1.9,0-2.9,0.1c-3,0.2-6,0.7-9,1.4c-3,0.7-6,1.8-8.8,3c-3.1,1.3-5.9,3-8.4,4.9l0,0l0,0
			c-3.3,2.6-6,5.6-8,9.1c-1.7-2.2-3.6-4.1-5.8-5.7c-5.5-4-10.9-6.9-16.1-8.4c-4.5-1.3-8.7-2-12.6-2c-0.7,0-1.3,0-2,0.1
			c-4.7,0.3-9,1.4-12.8,3.4c-3.3,1.7-6.1,3.8-8.3,6.1c-0.1,0.1-0.2,0.2-0.3,0.3c0.2-3.8,0.2-7.3-0.1-10.4c-0.2-1.6-0.4-3-0.8-4.4
			c0.8-0.1,1.5-0.2,2.3-0.3c4.3-0.8,8.3-2.6,11.8-5.5c0.4-0.3,0.7-0.6,1-0.9c1.4,1.2,2.9,2.3,4.5,3.2c4.7,2.7,10.7,4,18.4,4
			c3.5,0,6.7-0.6,9.5-1.8c2.3-1,4.4-2.2,6.3-3.8c2.8,2.8,7.4,5.6,14.3,5.6c5.3,0,9.5-0.9,13.1-2.7c3.2-1.6,5.7-3.7,7.6-6.3
			c4.2,3.1,8.7,5.4,13.5,6.7c4.5,1.3,8.9,1.9,13.1,1.9c0.5,0,0.9,0,1.4,0c4.8-0.2,9.2-1,13.2-2.6c4.3-1.7,7.7-4,10.1-6.8
			c0.7-0.7,1.3-1.5,1.8-2.3C346.2,112.3,347.1,113.6,348.1,114.8z"/>
		<path class="st2" d="M891.8,170.2c-0.5-3.3-1.5-6.2-3.1-8.9c-0.9-1.5-1.9-2.8-3-4c1-1.9,1.7-3.9,2.1-6c0.9-3.9,0.8-7.7-0.3-11.3
			c-1.2-3.9-3.5-7.3-7.1-10c-3.2-2.5-7.4-4.1-12.3-4.9c-1.8-0.3-3.7-0.4-5.7-0.4c-0.9,0-1.9,0-2.9,0.1c-3,0.2-6,0.7-9,1.4
			c-3,0.7-6,1.8-8.8,3c-3,1.3-5.9,3-8.4,4.9l0,0l0,0c-3.1,2.4-5.6,5.2-7.6,8.4c-1.5-1.9-3.3-3.6-5.2-5c-5.5-4-10.9-6.9-16.1-8.4
			c-4.5-1.3-8.7-2-12.6-2c-0.7,0-1.3,0-2,0.1c-4.7,0.3-9,1.4-12.8,3.4c-1.7,0.9-3.3,1.9-4.7,3c-0.6-2.4-1.6-4.7-2.8-6.6l-4.7-7.2
			l-1.6,1c-0.5-2-1.2-3.8-2.2-5.3c-1.4-2.3-4.2-5.3-9.2-6.7c-2.1-0.6-4.2-0.9-6.4-0.9c-1.1,0-2.1,0.1-3.2,0.2
			c-3.2,0.4-6.4,1.4-9.3,2.9c-3.4,1.8-6.1,4.2-8.1,7.3l-6,9.5l1.9,0.7c-1,1.1-1.9,2.4-2.7,4.1l0,0c-3.4-3-7.5-5-12.1-6.1
			c-2.4-0.6-4.8-0.9-7.2-0.9c-2.2,0-4.3,0.2-6.5,0.7c-3,0.6-5.8,1.7-8.6,3.3c-2.3-2.1-5.3-3.5-8.7-4c-1-0.1-2-0.2-3-0.2c0,0,0,0,0,0
			c-2.2,0-4.5,0.3-6.8,1c-3.1,0.9-6.2,2.5-9.1,4.6c-1.1,0.8-2,1.6-2.9,2.5c-0.7-0.6-1.4-1.3-2.2-1.8l0,0l0,0c-3-2.2-6.8-3.9-11.2-5
			c-3-0.7-6.1-1.1-9.3-1.1c-1.3,0-2.7,0.1-4.1,0.2c-4.7,0.5-9.3,1.8-13.9,4c-4.8,2.3-9.1,5.8-12.8,10.3c0,0,0,0,0,0
			c-0.8-1.6-1.7-3.1-2.8-4.5l-0.1-0.1l-0.1-0.1c-3.1-3.6-7-6.3-11.8-8c-3.7-1.3-7.6-2-11.7-2c-0.8,0-1.6,0-2.4,0.1
			c-4.8,0.3-9.7,1.6-14.5,3.8c-4.6,2.1-8.6,5.2-12.1,9.1c-0.7-2.2-1.9-4.3-3.4-6.1c-2.3-2.8-5.4-4.7-9.4-5.9l-0.1,0l-0.1,0
			c-1.9-0.5-3.9-0.7-6-0.7c-1.7,0-3.4,0.1-5.3,0.4c-4.3,0.7-8.6,2.5-12.8,5.4c0-0.1-0.1-0.1-0.1-0.2c-2.5-2.8-5.9-4.6-10.1-5.4
			c-1.4-0.2-2.8-0.4-4.3-0.4c-2.1,0-4.2,0.3-6.3,0.8c-3.4,0.8-6.7,2.2-9.9,4.3c-3.6,2.3-6.4,5.4-8.4,9.2l-0.3,0.6
			c-0.9-0.9-1.9-1.7-2.9-2.4c-5.5-4-10.9-6.9-16.1-8.4c-4.5-1.3-8.7-2-12.6-2c-0.7,0-1.3,0-2,0.1c-4.7,0.3-9,1.4-12.8,3.4
			c-3.3,1.7-6.1,3.8-8.3,6.1c-0.6,0.5-1.1,0.9-1.6,1.5c-0.6-1-1.2-2-1.9-2.9l-0.1-0.1l-0.1-0.1c-3.1-3.6-7-6.3-11.8-8
			c-3.7-1.3-7.6-2-11.7-2c-0.8,0-1.6,0-2.4,0.1c-4.8,0.3-9.7,1.6-14.5,3.8c-5,2.3-9.4,5.7-13.1,10.3c-4.3,5.1-7.4,10.5-9.1,16.1
			c-1.7,5.5-2.4,11-2.1,16.2c0.3,5.3,1.7,10.3,4,14.9c2.3,4.6,5.3,8.5,9,11.5l0.1,0l0.1,0c4.4,3.5,9.2,6,14.2,7.5
			c4.3,1.2,8.5,1.8,12.6,1.8c0.4,0,0.9,0,1.3,0c4.6-0.1,8.8-1,12.6-2.5c4.1-1.6,7.4-3.8,9.7-6.5c0.3-0.4,0.6-0.7,0.9-1.1
			c2.6,3.2,5.7,6,9.5,8.3c5.3,3.2,11.8,4.9,19.4,4.9c7.5,0,14-1.5,19.4-4.4c4.7-2.5,8.6-5.7,11.8-9.5c0.5,1.2,1.1,2.4,1.8,3.5
			c2.5,3.8,6.1,6.2,10.5,7c1.3,0.2,2.6,0.3,3.9,0.3c2,0,4-0.3,6-0.8c3-0.8,5.9-2.2,8.5-4c1.6-1.1,3-2.4,4.2-3.8
			c1.8,2.4,4.1,4.3,6.8,5.8c3.7,2,7.7,3,11.8,3c0.3,0,0.7,0,1,0c4.5-0.2,8.8-1.6,12.8-4.2c2.7-1.8,5-4.1,6.8-6.9
			c0.6,0.6,1.2,1.1,1.8,1.6l0.1,0l0.1,0c4.4,3.5,9.2,6,14.2,7.5c4.3,1.2,8.5,1.8,12.6,1.8c0.4,0,0.9,0,1.3,0c4.6-0.1,8.8-1,12.6-2.5
			c4.1-1.6,7.4-3.8,9.7-6.5c0.9-1,1.7-2.1,2.4-3.2c0.2,0.3,0.5,0.6,0.7,0.9c3.9,4.4,8.8,7.6,14.5,9.3c4.3,1.3,8.7,2,13.1,2
			c0.8,0,1.7,0,2.5-0.1c5.2-0.3,10.2-1.4,14.9-3.4c1.4-0.6,2.6-1.2,3.9-1.9c-0.1,2.6,0,5,0.2,7.3c0.5,5.6,2.5,10.3,5.9,14l0,0l0,0
			c3,3.1,6.6,5,10.8,5.8c1.3,0.2,2.7,0.4,4,0.4c2.5,0,5.1-0.4,7.6-1.2c3.6-1.2,7-3.1,10.2-5.8c3.2-2.7,5.9-6.1,7.9-10.2l2.6-5
			c0.6,0,1.2-0.1,1.8-0.1c6.1-0.5,11.5-2.5,16-6c2.9-2.2,5.5-4.8,7.6-7.8c0.8,2.6,2,4.9,3.6,6.9c2.7,3.5,6.7,5.8,11.5,6.7
			c1.5,0.3,3.1,0.4,4.6,0.4c2.6,0,5.4-0.4,8.1-1.2c4.2-1.3,8.1-3.6,11.5-6.7c1.1-1,2-2,2.9-3.2c2.7,3.7,6.1,6.8,10.2,9.3
			c5.3,3.2,11.8,4.9,19.4,4.9c7.5,0,14-1.5,19.4-4.4c3.6-1.9,6.8-4.3,9.5-7c0.6,0.8,1.3,1.6,2.1,2.4c2.5,2.4,5.8,4.1,9.8,5.1
			c3.1,0.8,6.6,1.2,10.3,1.3c0.2,0,0.4,0,0.6,0c3.4,0,7-0.3,10.6-1c3.8-0.7,7.5-1.8,11.1-3.1c3.7-1.4,7.2-3.2,10.4-5.3
			c3.5-2.3,6.4-4.9,8.8-7.9c2.5-3.2,4.2-6.6,5.1-10.2C892.1,176.8,892.3,173.4,891.8,170.2z"/>
	</g>
	<g>
		<path class="st3" d="M173.2,82c-2.8,2-5.9,3.5-9.3,4.4c-3.4,1-6.9,1.6-10.5,1.7c-3.6,0.2-7.1-0.1-10.5-0.7
			c-3.5-0.7-6.6-1.6-9.4-2.8c0.3,2.6,1.5,4.7,3.5,6.2c2,1.5,4.4,2.6,7.2,3.1c2.8,0.6,5.8,0.7,9.1,0.5c3.2-0.2,6.3-0.8,9.2-1.6
			c2.9-0.8,5.5-1.9,7.8-3.3c2.3-1.4,3.8-2.9,4.6-4.5c1.5,0.2,2.7,1.1,3.5,2.5c0.9,1.4,1.4,3,1.5,4.9c0.1,1.9-0.2,3.9-0.9,6
			c-0.7,2.1-1.8,4.1-3.4,5.8c-2.2,2.5-5.3,4.5-9.2,6.2c-3.9,1.6-8.2,2.6-12.6,2.8c-4.5,0.2-8.9-0.3-13.3-1.6c-4.4-1.3-8-3.7-11-7
			c-2.1-2.3-3.8-5.2-5.2-8.8c-1.4-3.6-2.3-7.5-2.5-11.8c-0.2-4.3,0.4-8.7,1.7-13.3c1.4-4.6,3.8-9,7.3-13.3c3.1-3.8,6.6-6.6,10.4-8.4
			c3.8-1.8,7.6-3,11.5-3.3c3.8-0.4,7.5-0.1,10.9,0.7c3.5,0.9,6.3,2.1,8.5,3.8c2.6,2,4.7,4.4,6.2,7.2c1.5,2.8,2.3,5.7,2.5,8.7
			c0.2,3-0.4,5.9-1.5,8.7C178,77.7,176,80,173.2,82z M162.6,66.5c-1.2-0.3-3-0.6-5.2-0.9c-2.3-0.2-4.7-0.2-7.2,0.1
			c-2.5,0.3-5.1,1-7.5,2.1c-2.5,1.1-4.5,2.8-6.2,5.1c1.3,0.9,2.9,1.6,4.9,2.2c1.9,0.5,4,0.9,6.1,1c2.1,0.2,4.3,0.1,6.5-0.1
			c2.2-0.2,4.3-0.6,6.2-1.2c2-0.6,3.5-1.3,4.5-2c1-0.8,1.6-1.6,1.8-2.4c0.2-0.8-0.1-1.6-0.7-2.3C165.1,67.4,164,66.9,162.6,66.5z"/>
		<path class="st3" d="M185.6,34.8c0.7-1.7,2.2-3.3,4.5-4.6c2.3-1.4,5-2.3,7.8-2.8c2.9-0.5,5.7-0.4,8.4,0.2c2.8,0.7,4.9,2.1,6.5,4.3
			c1.1,1.6,1.7,3.9,2,6.7c0.3,2.8,0.3,6,0.1,9.6c-0.2,3.6-0.7,7.4-1.2,11.4c-0.6,4-1.1,8-1.7,12c-0.5,3.9-1,7.7-1.3,11.3
			c-0.3,3.6-0.4,6.8-0.1,9.6c0.2,2.8,0.8,5,1.8,6.6c0.9,1.6,2.4,2.5,4.5,2.5c-1,3.4-2.7,6-5.1,8c-2.4,1.9-5,3.1-7.8,3.6
			c-2.8,0.5-5.5,0.3-8.2-0.6c-2.7-0.9-4.8-2.5-6.3-4.8c-1.6-2.3-2.4-5.5-2.5-9.7c-0.1-4.2,0.1-8.8,0.6-13.9
			c0.5-5.1,1.1-10.3,1.8-15.7c0.7-5.4,1.2-10.4,1.5-15c0.2-4.6,0-8.7-0.7-12C189.5,38.1,188,35.9,185.6,34.8z"/>
		<path class="st3" d="M335.8,74.4c-1.6-2.9-3.6-5-6-6.5c-2.5-1.4-5.1-2.3-7.9-2.5c-2.8-0.2-5.5,0.1-8.3,0.9c-2.7,0.9-5.1,2.1-7,3.8
			c-1.6,1.2-2.8,2.7-3.6,4.3c-0.9,1.6-1.4,3.3-1.6,5c-0.2,1.7-0.1,3.3,0.3,4.8c0.4,1.5,1.1,2.8,2.1,3.8c2.2,2.3,4.8,3.8,7.8,4.6
			c3,0.8,6,0.9,9.1,0.4c3-0.5,5.9-1.5,8.6-3.1c2.7-1.6,4.9-3.6,6.5-6.1c0.7,0.9,1.5,2.3,2.3,4.1c0.8,1.8,1.4,3.9,1.7,6.2
			c0.4,2.3,0.4,4.6,0.1,6.9c-0.3,2.3-1.3,4.4-3,6.2c-1.5,1.7-3.7,3.2-6.7,4.4c-3,1.2-6.4,1.8-10.2,2c-3.8,0.1-7.7-0.4-11.8-1.5
			c-4.1-1.2-8-3.2-11.7-6.2c-2.9-2.4-5.2-5.4-7.1-9.1s-2.9-7.7-3.2-12.1c-0.3-4.4,0.3-9,1.8-13.7c1.5-4.8,4.1-9.4,7.9-13.8
			c3-3.7,6.6-6.5,10.6-8.3c4-1.8,8-2.9,12-3.1c3.9-0.2,7.7,0.2,11.2,1.5c3.5,1.2,6.3,3.1,8.4,5.7c1.2,1.6,2.1,3.3,2.7,5.1
			c0.5,1.8,0.7,3.7,0.5,5.7c-0.2,1.9-0.7,3.8-1.6,5.7C338.7,71.1,337.4,72.8,335.8,74.4z"/>
		<path class="st3" d="M447.1,55.6c1.3-2.5,3.2-4.6,5.6-6.2c2.4-1.6,4.9-2.7,7.5-3.3c2.6-0.6,5.1-0.7,7.4-0.3
			c2.3,0.4,4.1,1.3,5.2,2.6c1.2,1.3,1.6,3,1.4,5c-0.2,2-0.8,4.3-1.7,6.8c-0.9,2.5-1.9,5.2-3,8c-1.2,2.8-2.1,5.8-2.8,8.8
			c-0.1,0.2,0.4,0.5,1.5,0.9c2.1-7.3,4.6-13.2,7.7-17.6c3.1-4.4,6.3-7.8,9.6-10.1c3.3-2.3,6.5-3.7,9.7-4.2c3.2-0.5,5.9-0.5,8.2,0.1
			c2.3,0.7,4,1.7,5.2,3.1c1.2,1.4,2,3.1,2.3,5.1c0.3,1.9,0.3,4-0.1,6.3c-0.4,2.3-0.9,4.5-1.7,6.7c-1.2,3.3-2.2,6.8-3.1,10.6
			c-0.9,3.8-1.5,7.4-1.5,10.7c-0.1,3.4,0.4,6.3,1.5,8.8c1.1,2.5,3.1,4.1,6.1,4.9c-1.3,3.8-3.4,6.6-6.2,8.4c-2.8,1.8-5.7,2.8-8.8,2.9
			c-3.1,0.1-6-0.6-8.8-2c-2.8-1.5-4.7-3.6-5.7-6.4c-1.2-3-1.6-6.3-1.2-10.2c0.3-3.8,1.2-7.6,2.5-11.5c1.3-3.8,3-7.4,5-10.7
			c2-3.3,4.1-6,6.2-8c-1.8-1-3.7-1.1-5.8-0.2c-2.1,0.8-4.1,2.2-6.2,4.3c-2.1,2-4,4.5-5.9,7.3c-1.8,2.9-3.4,5.9-4.7,9.1
			c-1.3,3.2-2.3,6.3-3.1,9.4c-0.7,3.1-1,5.9-0.7,8.4c0.5,1.2,1.2,2,2.2,2.6c-0.9,1.6-2.3,3.1-4.1,4.4c-1.8,1.3-3.8,2.3-6,2.8
			c-2.1,0.6-4.2,0.7-6.3,0.3c-2.1-0.4-3.7-1.5-4.9-3.4c-1.3-1.9-2-4.5-2.1-7.7c-0.1-3.2,0.1-6.8,0.6-10.6c0.5-3.8,1-7.7,1.7-11.8
			c0.7-4,1.1-7.7,1.4-11.1c0.2-3.4,0.1-6.2-0.4-8.6C450.2,57.7,449,56.2,447.1,55.6z"/>
		<path class="st3" d="M80.4,106.8c-0.5,1.2-1.3,2.3-2.3,3.2c-0.9,0.8-2.2,1.5-3.9,2.2c-1.7,0.6-3.9,0.9-6.7,0.9c-2.7,0-5-0.2-7-0.7
			c-1.9-0.5-3.4-1.7-4.3-3.7c-0.9-2-1.4-5.1-1.4-9.2c0-4.1,0.7-9.9,1.9-17.3c0.9-5.8,1.5-11.1,1.9-16c0.4-4.9,0.5-9.2,0.4-12.8
			c-0.1-3.7-0.4-6.5-0.8-8.6c-0.5-2.1-1-3.2-1.5-3.4c0.4-0.9,1.4-1.8,2.9-2.6c1.5-0.8,3.2-1.5,5.1-1.9c1.9-0.5,3.9-0.7,6-0.7
			c2.1,0,4,0.4,5.6,1.3c1.6,0.9,2.9,2.2,3.8,4c0.9,1.8,1.2,4.2,0.7,7.3c-0.4,3-0.8,6.3-1.3,10.1c-0.5,3.8-0.9,7.7-1.3,11.8
			c2.7,0,5.2-0.7,7.4-2.2c2.2-1.5,4.1-3.4,5.7-5.8c1.6-2.4,2.8-5.1,3.7-8.1c0.9-3,1.4-6.1,1.4-9.3c0-3.2-0.5-6.3-1.4-9.3
			c-0.9-3-2.5-5.8-4.6-8.1c-2.1-2.4-4.8-4.3-8-5.7c-3.2-1.4-7.2-2.2-11.9-2.2c-7.3,0-13.3,1-18.1,3.1c-4.7,2.1-8.4,4.6-11,7.7
			c-2.6,3.1-4.2,6.4-4.7,10c-0.5,3.6-0.2,6.9,0.9,10c1.1,3.1,3,5.7,5.6,7.7c2.6,2.1,5.8,3.1,9.5,3.1c-0.4,3-1.2,5.6-2.2,7.9
			c-1,2-2.4,3.8-4.3,5.4c-1.8,1.6-4.4,2.3-7.7,2.2c-3.3-0.2-6.3-1.3-9-3.3c-2.7-2-5-4.6-6.7-7.8c-1.8-3.2-3-6.7-3.6-10.5
			c-0.7-3.9-0.5-7.7,0.4-11.6c0.9-3.8,3-7.5,6.3-11.1c3.3-3.6,7.7-6.8,13-9.7c5.3-2.8,11.6-5.1,18.9-6.8c7.2-1.7,15.2-2.5,23.9-2.5
			c7.5,0,14,1.2,19.6,3.5c5.6,2.3,10.1,5.4,13.6,9.1c3.5,3.7,5.8,7.9,7,12.5c1.2,4.6,1.3,9.1,0.1,13.6c-1.2,4.4-3.6,8.6-7.3,12.4
			s-8.5,10.5-15.2,9.1c8.3,1.8,13.5,10.3,14.3,16.8c6.5,49.2,36.8,28,35.2,28c5.4-0.2,18.1,11.1,4.6,22.7
			c-4.5,3.9-12.5,7.4-22.2,7.3c-12.5-0.2-36.7-5-39.9-36.1C87.6,71.9,79.1,75.1,78,75.1c-0.3,3.9-0.6,7.8-0.7,11.5
			c-0.2,3.7-0.2,7-0.1,9.9c0.1,2.9,0.4,5.3,0.9,7.2C78.6,105.5,79.4,106.6,80.4,106.8z"/>
		<path class="st3" d="M273.1,65.1c0.8,2.1,1.3,4.3,1.4,6.6c0.1,2.3,0.1,4.5,0.1,6.8c0,2.3,0,4.5,0.2,6.7c0.2,2.2,0.7,4.3,1.6,6.2
			c0.6,1.2,1.3,1.9,2,2c0.8,0.1,1.4-0.1,2-0.5c0.5-0.4,0.8-0.9,0.7-1.6c0-0.7-0.6-1.2-1.7-1.6c1.3,0.1,2.6,0.8,3.8,2
			c1.2,1.3,2.2,2.8,2.9,4.6c0.7,1.8,1,3.7,1,5.8c0,2.1-0.5,4-1.5,5.7c-1,1.8-2.7,3.2-4.9,4.4c-2.3,1.2-5.3,1.7-9.1,1.7
			c-3.9,0-6.8-1.3-8.8-3.8c-2-2.5-3.5-5.8-4.4-9.7c-0.7,1.8-1.6,3.5-2.6,5.2c-1,1.6-2.2,3.1-3.6,4.3c-1.4,1.2-3,2.2-4.7,3
			c-1.8,0.7-3.8,1.1-6.1,1.1c-6,0-10.6-0.9-13.9-2.8c-3.3-1.9-5.6-4.3-6.8-7.1c-1.3-2.8-1.6-5.9-1.1-9.2c0.5-3.3,1.6-6.4,3.3-9.2
			c1.7-2.8,3.8-5.2,6.3-7.1c2.5-1.9,5.3-2.8,8.1-2.8c5.1,0,9.3,0.2,12.5,0.7c3.2,0.5,5.8,1,7.7,1.6c0.1-0.7,0.1-1.5,0.1-2.2
			c0-0.7,0-1.5,0.1-2.2c-0.5-2.9-1.8-5.2-3.9-6.9c-2.1-1.7-4.4-2.8-6.9-3.1c-2.5-0.3-4.7,0.2-6.8,1.5c-2.1,1.4-3.4,3.7-3.8,7
			c-4,0.6-7.2,0.3-9.6-0.8c-2.4-1.1-3.9-2.6-4.6-4.5c-0.7-1.9-0.6-3.9,0.3-6.2c0.9-2.2,2.6-4.2,5.1-5.9c2.5-1.7,5.7-2.9,9.7-3.6
			c4-0.7,8.7-0.6,14.1,0.5c2.5,0.5,4.9,1.1,7.2,1.8c2.3,0.7,4.5,1.7,6.6,3.1c2,1.2,3.7,2.6,5.1,4.2
			C271.6,62.2,272.5,63.7,273.1,65.1z M247,100.6c1.6,0,2.9-0.5,4.1-1.4c1.2-0.9,2.1-2.2,2.9-3.6c0.8-1.5,1.4-3.1,1.8-4.8
			c0.5-1.7,0.8-3.4,1-4.9c-0.9-0.2-2.1-0.5-3.6-0.7c-1.5-0.2-3.5-0.4-5.9-0.4c-2.1-0.3-3.8,0.3-5.1,2c-1.2,1.6-2,3.5-2.2,5.5
			c-0.2,2.1,0.2,4,1.3,5.7C242.5,99.7,244.4,100.6,247,100.6z"/>
		<path class="st3" d="M349.5,70.7c-0.6-0.2-1.1-0.9-1.7-1.9c-0.5-1-0.9-2.2-1.1-3.6c-0.2-1.4-0.1-2.8,0.3-4.3
			c0.4-1.5,1.3-2.9,2.5-4.2c1.3-1.3,3.1-2.3,5.4-3.1c2.3-0.8,5.4-1.2,9.2-1.2c3.4,0,6,1.3,7.8,3.9c1.8,2.6,3.1,5.8,3.9,9.7
			c0.8,3.9,1.3,8.2,1.5,12.8c0.2,4.6,0.2,9,0.2,13.1c0,4.1,0,7.6,0.1,10.6c0.1,3,0.6,4.7,1.4,5.3c-1,1.8-2.5,3.3-4.4,4.4
			c-2,1.2-4.1,1.8-6.5,2.1c-2.3,0.2-4.7,0-7.1-0.8c-2.4-0.8-4.4-2.2-6.2-4.3c-1.7-2.1-3-4.9-3.8-8.4c-0.8-3.5-0.8-7.8,0.1-13
			c0.8-5.2,1.3-9.2,1.4-12.2c0.1-3,0-5.2-0.3-6.6c-0.3-1.4-0.7-2.3-1.2-2.5c-0.5-0.2-1-0.1-1.4,0.4c-0.4,0.5-0.7,1.1-0.8,1.8
			C348.7,69.5,348.9,70.2,349.5,70.7z M371.1,34.3c0,2.6-0.9,4.9-2.8,6.8c-1.9,1.9-4.2,2.8-6.8,2.8c-2.6,0-4.9-0.9-6.8-2.8
			c-1.9-1.9-2.8-4.1-2.8-6.8c0-2.6,0.9-4.9,2.8-6.8c1.9-1.9,4.1-2.8,6.8-2.8c2.6,0,4.9,0.9,6.8,2.8
			C370.2,29.4,371.1,31.6,371.1,34.3z"/>
		<path class="st3" d="M411.7,114.6c-5.9,0-10.8-1.2-14.7-3.6c-3.9-2.4-6.9-5.4-9.1-9.1c-2.2-3.7-3.6-7.8-4.3-12.4
			c-0.7-4.6-0.7-9-0.1-13.3c0.6-4.3,1.7-8.2,3.4-11.8c1.6-3.6,3.7-6.2,6-8c1.6-1.8,3.7-3.4,6.3-4.8c2.7-1.4,5.7-2.2,9.2-2.4
			c3.5-0.2,7.3,0.3,11.5,1.6c4.2,1.3,8.7,3.6,13.4,7.1c2.8,2.1,5,4.9,6.7,8.4c1.6,3.6,2.7,7.5,3.1,11.7c0.4,4.2,0.1,8.5-0.9,12.8
			c-1,4.4-2.8,8.3-5.3,11.8c-2.5,3.5-5.9,6.3-10,8.6C422.8,113.5,417.7,114.6,411.7,114.6z M432.3,71.4c-0.4-1.4-1.2-2.7-2.5-3.8
			c-1.2-1.1-2.7-2-4.5-2.7c-1.8-0.7-3.7-1.1-5.8-1.2c-2.1-0.2-4.3,0-6.5,0.6c-1.9,0.6-3.6,1.8-5,3.8c-1.4,2-2.5,4.3-3.3,7
			c-0.7,2.7-1.1,5.4-1,8.3c0,2.9,0.6,5.5,1.7,7.8c1.1,2.3,2.7,4.2,4.9,5.5c2.2,1.4,5,1.9,8.6,1.5c3.3-0.3,5.9-1.1,7.9-2.4
			c2-1.3,3.5-2.8,4.6-4.5c1.1-1.7,1.8-3.6,2.2-5.5c0.3-2,0.4-3.9,0.3-5.8c-0.1-1.9-0.4-3.6-0.7-5.1
			C432.8,73.4,432.5,72.3,432.3,71.4z"/>
		<path class="st3" d="M569.3,65.1c0.8,2.1,1.3,4.3,1.4,6.6c0.1,2.3,0.1,4.5,0.1,6.8c0,2.3,0,4.5,0.2,6.7c0.2,2.2,0.7,4.3,1.6,6.2
			c0.6,1.2,1.3,1.9,2,2c0.8,0.1,1.4-0.1,2-0.5c0.5-0.4,0.8-0.9,0.7-1.6c0-0.7-0.6-1.2-1.7-1.6c1.3,0.1,2.6,0.8,3.8,2
			c1.2,1.3,2.2,2.8,2.9,4.6c0.7,1.8,1,3.7,1,5.8c0,2.1-0.5,4-1.5,5.7c-1,1.8-2.7,3.2-4.9,4.4c-2.3,1.2-5.3,1.7-9.1,1.7
			c-3.9,0-6.8-1.3-8.8-3.8c-2-2.5-3.5-5.8-4.4-9.7c-0.7,1.8-1.6,3.5-2.6,5.2c-1,1.6-2.2,3.1-3.6,4.3c-1.4,1.2-3,2.2-4.7,3
			c-1.8,0.7-3.8,1.1-6.1,1.1c-6,0-10.6-0.9-13.9-2.8c-3.3-1.9-5.6-4.3-6.8-7.1c-1.3-2.8-1.6-5.9-1.1-9.2c0.5-3.3,1.6-6.4,3.3-9.2
			c1.7-2.8,3.8-5.2,6.3-7.1c2.5-1.9,5.3-2.8,8.1-2.8c5.1,0,9.3,0.2,12.5,0.7c3.2,0.5,5.8,1,7.7,1.6c0.1-0.7,0.1-1.5,0.1-2.2
			c0-0.7,0-1.5,0.1-2.2c-0.5-2.9-1.8-5.2-3.9-6.9c-2.1-1.7-4.4-2.8-6.9-3.1c-2.5-0.3-4.7,0.2-6.8,1.5c-2.1,1.4-3.4,3.7-3.8,7
			c-4,0.6-7.2,0.3-9.6-0.8c-2.4-1.1-3.9-2.6-4.6-4.5c-0.7-1.9-0.6-3.9,0.3-6.2c0.9-2.2,2.6-4.2,5.1-5.9c2.5-1.7,5.7-2.9,9.7-3.6
			c4-0.7,8.7-0.6,14.1,0.5c2.5,0.5,4.9,1.1,7.2,1.8c2.3,0.7,4.5,1.7,6.6,3.1c2,1.2,3.7,2.6,5.1,4.2
			C567.8,62.2,568.7,63.7,569.3,65.1z M543.2,100.6c1.6,0,2.9-0.5,4.1-1.4c1.2-0.9,2.1-2.2,2.9-3.6c0.8-1.5,1.4-3.1,1.8-4.8
			c0.5-1.7,0.8-3.4,1-4.9c-0.9-0.2-2.1-0.5-3.6-0.7c-1.5-0.2-3.5-0.4-5.9-0.4c-2.1-0.3-3.8,0.3-5.1,2c-1.2,1.6-2,3.5-2.2,5.5
			c-0.2,2.1,0.2,4,1.3,5.7C538.7,99.7,540.5,100.6,543.2,100.6z"/>
		<path class="st4" d="M167.6,123.9c0.6-1.6,2-3.1,4.3-4.4c2.2-1.3,4.7-2.2,7.4-2.6c2.7-0.5,5.4-0.4,8,0.2c2.6,0.6,4.6,2,6.1,4.1
			c1,1.6,1.7,3.7,1.9,6.4c0.3,2.7,0.3,5.7,0.1,9.1c-0.2,3.4-0.6,7-1.2,10.8c-0.5,3.8-1.1,7.6-1.6,11.3c-0.5,3.7-0.9,7.3-1.2,10.7
			c-0.3,3.4-0.3,6.4-0.1,9c0.2,2.6,0.8,4.7,1.7,6.2c0.9,1.6,2.3,2.3,4.3,2.3c-0.9,3.2-2.5,5.7-4.8,7.5c-2.3,1.8-4.7,3-7.3,3.4
			c-2.6,0.5-5.2,0.3-7.8-0.6c-2.5-0.9-4.5-2.4-6-4.5c-1.5-2.2-2.3-5.2-2.4-9.2c-0.1-4,0.1-8.3,0.5-13.1c0.5-4.8,1-9.7,1.7-14.8
			c0.7-5.1,1.2-9.8,1.4-14.2c0.2-4.4,0-8.2-0.6-11.4C171.3,127,169.9,124.9,167.6,123.9z"/>
		<path class="st4" d="M314.6,162.3c1.3,0.8,2.5,2,3.4,3.6c1,1.6,1.6,3.5,1.9,5.6c0.3,2.1,0.2,4.3-0.3,6.6c-0.5,2.3-1.7,4.5-3.4,6.7
			c-1.8,2.3-4,4.3-6.7,6c-2.7,1.7-5.6,3.2-8.7,4.4c-3.1,1.2-6.3,2.1-9.6,2.7c-3.3,0.6-6.5,0.9-9.5,0.9c-3,0-5.8-0.4-8.3-1
			c-2.5-0.6-4.4-1.6-5.8-2.9c-1.5-1.4-2.5-3.1-3-5.2c-0.5-2.1-0.7-4.1-0.3-6.2c0.3-2.1,1-3.9,2.1-5.5c1.1-1.6,2.5-2.8,4.3-3.4
			c0.6,1.5,2,2.6,4,3.3c2.1,0.7,4.4,1.2,7.1,1.3c2.7,0.1,5.5,0,8.5-0.3c3-0.3,5.7-0.9,8.2-1.5c2.4-0.7,4.5-1.5,6.1-2.4
			c1.6-1,2.4-2,2.4-3c0-1.2-0.6-1.9-1.7-2.3c-1.1-0.4-2.6-0.6-4.4-0.6c-1.8,0-3.9,0.1-6.3,0.3c-2.4,0.2-4.8,0.4-7.2,0.5
			c-6.8,0.3-11.9-0.6-15.3-2.7c-3.3-2.1-5-5.2-5-9.3c0-3,0.7-5.9,2.2-8.9c1.5-3,3.6-5.5,6.3-7.6c1.9-1.5,4.1-2.7,6.5-3.8
			c2.4-1,4.9-1.9,7.4-2.5c2.5-0.6,5-1,7.5-1.2c2.4-0.2,4.7-0.1,6.7,0.2c3.5,0.5,6.3,1.6,8.3,3.1c2,1.6,3.3,3.4,4,5.5
			c0.6,2.1,0.7,4.4,0.1,6.8c-0.5,2.4-1.6,4.7-3.3,6.9c-0.9-1.4-2.2-2.5-4-3.2c-1.8-0.7-3.9-1.2-6.2-1.5c-2.3-0.3-4.7-0.3-7.2-0.1
			c-2.4,0.2-4.7,0.6-6.7,1.2c-2,0.6-3.7,1.3-5,2.2c-1.3,0.9-2,1.9-2,3c0,1.3,1.1,2.2,3.4,2.6c2.3,0.4,5.9,0.4,10.7,0
			c3-0.2,5.6-0.3,7.6-0.3c2,0,3.7,0.1,5.1,0.2c1.4,0.1,2.5,0.3,3.4,0.7C312.8,161.4,313.7,161.8,314.6,162.3z"/>
		<path class="st4" d="M400,161.4c-1.5-2.7-3.4-4.8-5.7-6.1c-2.3-1.4-4.8-2.2-7.5-2.4c-2.6-0.2-5.2,0.1-7.8,0.9
			c-2.6,0.8-4.8,2-6.6,3.6c-1.5,1.2-2.6,2.5-3.4,4.1c-0.8,1.6-1.3,3.1-1.5,4.7c-0.2,1.6-0.1,3.1,0.3,4.5c0.4,1.4,1,2.6,2,3.6
			c2.1,2.2,4.6,3.6,7.4,4.4c2.8,0.7,5.7,0.9,8.6,0.4c2.9-0.5,5.6-1.5,8.2-3c2.6-1.5,4.6-3.4,6.2-5.8c0.7,0.9,1.4,2.2,2.2,3.9
			c0.7,1.7,1.3,3.7,1.6,5.8c0.3,2.1,0.4,4.3,0.1,6.5c-0.3,2.2-1.2,4.2-2.8,5.9c-1.4,1.6-3.5,3-6.4,4.1c-2.8,1.1-6,1.7-9.6,1.9
			c-3.6,0.1-7.3-0.4-11.2-1.5c-3.9-1.1-7.6-3-11.1-5.8c-2.7-2.3-5-5.1-6.7-8.6c-1.7-3.5-2.8-7.3-3-11.5c-0.3-4.2,0.3-8.5,1.7-13
			c1.4-4.5,3.9-8.9,7.5-13.1c2.9-3.5,6.2-6.1,10-7.9c3.8-1.7,7.6-2.7,11.3-3c3.7-0.2,7.3,0.2,10.6,1.4c3.3,1.2,6,3,8,5.4
			c1.2,1.5,2,3.1,2.5,4.8c0.5,1.7,0.7,3.5,0.5,5.4c-0.2,1.8-0.7,3.6-1.5,5.4C402.7,158.2,401.5,159.9,400,161.4z"/>
		<path class="st4" d="M475.5,143.6c1.2-2.4,3-4.4,5.3-5.8c2.3-1.5,4.7-2.5,7.1-3.1c2.4-0.6,4.8-0.7,7-0.3c2.2,0.4,3.9,1.2,5,2.4
			c1.1,1.2,1.5,2.8,1.3,4.7c-0.2,1.9-0.8,4-1.6,6.4c-0.8,2.4-1.8,4.9-2.9,7.6c-1.1,2.7-2,5.5-2.7,8.3c-0.1,0.2,0.4,0.4,1.4,0.8
			c1.9-6.9,4.4-12.5,7.3-16.7c2.9-4.2,5.9-7.4,9-9.6c3.1-2.2,6.2-3.5,9.2-4c3-0.5,5.6-0.4,7.8,0.1c2.2,0.6,3.8,1.6,5,3
			c1.1,1.4,1.8,3,2.2,4.8c0.3,1.8,0.3,3.8-0.1,5.9c-0.3,2.1-0.9,4.3-1.6,6.4c-1.1,3.1-2.1,6.5-3,10c-0.9,3.6-1.4,7-1.5,10.1
			c-0.1,3.2,0.4,6,1.5,8.3c1,2.4,3,3.9,5.8,4.6c-1.2,3.6-3.2,6.2-5.8,7.9c-2.6,1.7-5.4,2.6-8.3,2.7c-2.9,0.1-5.7-0.5-8.3-1.9
			c-2.6-1.4-4.4-3.4-5.4-6.1c-1.1-2.8-1.5-6-1.2-9.6c0.3-3.6,1.1-7.2,2.3-10.8c1.2-3.6,2.8-7,4.7-10.1c1.9-3.1,3.9-5.7,5.9-7.5
			c-1.7-0.9-3.5-1-5.5-0.2c-1.9,0.8-3.9,2.1-5.8,4c-1.9,1.9-3.8,4.2-5.5,6.9c-1.7,2.7-3.2,5.6-4.5,8.6c-1.2,3-2.2,6-2.9,8.9
			c-0.7,3-0.9,5.6-0.7,7.9c0.5,1.1,1.2,1.9,2.1,2.4c-0.9,1.6-2.2,3-3.9,4.2c-1.7,1.2-3.6,2.1-5.7,2.7c-2,0.5-4,0.6-5.9,0.3
			c-1.9-0.3-3.5-1.4-4.7-3.2c-1.2-1.8-1.9-4.2-2-7.3c-0.1-3.1,0.1-6.4,0.5-10c0.4-3.6,1-7.3,1.6-11.1c0.6-3.8,1-7.3,1.3-10.5
			c0.2-3.2,0.1-5.9-0.3-8.2C478.5,145.6,477.3,144.2,475.5,143.6z"/>
		<path class="st4" d="M587.5,161.4c-1.5-2.7-3.4-4.8-5.7-6.1c-2.3-1.4-4.8-2.2-7.5-2.4c-2.6-0.2-5.2,0.1-7.8,0.9
			c-2.6,0.8-4.8,2-6.6,3.6c-1.5,1.2-2.6,2.5-3.4,4.1c-0.8,1.6-1.3,3.1-1.5,4.7c-0.2,1.6-0.1,3.1,0.3,4.5c0.4,1.4,1,2.6,2,3.6
			c2.1,2.2,4.6,3.6,7.4,4.4c2.8,0.7,5.7,0.9,8.6,0.4c2.9-0.5,5.6-1.5,8.2-3c2.6-1.5,4.6-3.4,6.2-5.8c0.7,0.9,1.4,2.2,2.2,3.9
			c0.7,1.7,1.3,3.7,1.6,5.8c0.3,2.1,0.4,4.3,0.1,6.5c-0.3,2.2-1.2,4.2-2.8,5.9c-1.4,1.6-3.5,3-6.4,4.1c-2.8,1.1-6,1.7-9.6,1.9
			c-3.6,0.1-7.3-0.4-11.2-1.5c-3.9-1.1-7.6-3-11.1-5.8c-2.7-2.3-5-5.1-6.7-8.6c-1.7-3.5-2.8-7.3-3-11.5c-0.3-4.2,0.3-8.5,1.7-13
			c1.4-4.5,3.9-8.9,7.5-13.1c2.9-3.5,6.2-6.1,10-7.9c3.8-1.7,7.6-2.7,11.3-3c3.7-0.2,7.3,0.2,10.6,1.4c3.3,1.2,6,3,8,5.4
			c1.2,1.5,2,3.1,2.5,4.8c0.5,1.7,0.7,3.5,0.5,5.4c-0.2,1.8-0.7,3.6-1.5,5.4C590.3,158.2,589.1,159.9,587.5,161.4z"/>
		<path class="st4" d="M646.4,168.6c-2.6,1.9-5.6,3.3-8.8,4.2c-3.2,0.9-6.5,1.5-9.9,1.6c-3.4,0.2-6.7-0.1-10-0.7
			c-3.3-0.6-6.2-1.5-8.9-2.7c0.3,2.5,1.4,4.5,3.3,5.9c1.9,1.4,4.1,2.4,6.8,3c2.6,0.5,5.5,0.7,8.6,0.5c3.1-0.2,6-0.7,8.7-1.5
			c2.8-0.8,5.2-1.8,7.3-3.1c2.1-1.3,3.6-2.7,4.4-4.3c1.4,0.2,2.5,1,3.3,2.3c0.8,1.3,1.3,2.9,1.4,4.7c0.1,1.8-0.2,3.7-0.8,5.7
			c-0.7,2-1.7,3.8-3.2,5.5c-2.1,2.3-5,4.3-8.7,5.8c-3.7,1.6-7.7,2.4-12,2.7c-4.2,0.2-8.4-0.3-12.5-1.5c-4.1-1.2-7.6-3.5-10.4-6.6
			c-1.9-2.2-3.6-5-5-8.3c-1.4-3.4-2.1-7.1-2.3-11.1c-0.2-4,0.3-8.2,1.6-12.5c1.3-4.3,3.6-8.5,6.9-12.5c3-3.6,6.2-6.2,9.9-8
			c3.6-1.7,7.2-2.8,10.8-3.1c3.6-0.3,7.1-0.1,10.3,0.7c3.3,0.8,5.9,2,8,3.6c2.5,1.9,4.4,4.1,5.8,6.8c1.4,2.6,2.2,5.4,2.3,8.2
			c0.2,2.8-0.3,5.6-1.5,8.2C650.9,164.5,649.1,166.7,646.4,168.6z M636.4,153.9c-1.2-0.3-2.8-0.6-5-0.8c-2.1-0.2-4.4-0.2-6.8,0.1
			c-2.4,0.3-4.8,1-7.1,2c-2.3,1-4.3,2.6-5.8,4.8c1.2,0.9,2.8,1.5,4.6,2c1.8,0.5,3.8,0.8,5.8,1c2,0.2,4.1,0.1,6.1-0.1
			c2.1-0.2,4-0.6,5.9-1.1c1.9-0.5,3.3-1.2,4.3-1.9c1-0.7,1.5-1.5,1.7-2.3c0.2-0.8-0.1-1.5-0.6-2.2
			C638.8,154.8,637.8,154.3,636.4,153.9z"/>
		<path class="st4" d="M675.9,179.4c-0.5,3-0.7,6.1-0.8,9.1c0,3,0.3,5.9,1,8.5c0.7,2.6,1.8,4.9,3.3,6.9c1.5,1.9,3.6,3.3,6.4,4.2
			c-1.6,3-3.5,5.5-5.8,7.5c-2.3,1.9-4.7,3.3-7.2,4.1c-2.5,0.8-4.9,1-7.2,0.6c-2.3-0.4-4.3-1.5-5.9-3.2c-2-2.2-3.2-5.1-3.5-8.7
			c-0.3-3.6-0.2-7.7,0.3-12.1c0.5-4.5,1.2-9.2,2.1-14.2c0.9-5,1.6-9.9,2-14.8c0.3-3.1,0.6-5.9,0.8-8.5c0.2-2.6,0.3-4.9,0.1-6.9
			c-0.2-2-0.7-3.7-1.5-5.1c-0.8-1.4-2.1-2.4-3.8-3.1c1.2-2.3,2.9-4.3,5-5.8c2.1-1.5,4.2-2.6,6.3-3.2c2.1-0.6,4.2-0.8,6.1-0.5
			c1.9,0.3,3.4,1,4.4,2.3c0.8,1,1.3,2,1.5,2.9c0.2,0.9,0.3,1.8,0.1,2.8c-0.2,1-0.4,2-0.9,3.1c-0.4,1.1-0.9,2.3-1.3,3.6
			c1.9-4,4.3-7.2,7.2-9.5c3-2.3,6.1-3.8,9.3-4.5c3.3-0.7,6.5-0.7,9.7,0.1c3.2,0.8,6,2.2,8.3,4.2c2.6,2.3,4.7,5.4,6.3,9.1
			c1.6,3.7,2.5,7.7,2.9,12c0.4,4.2,0.2,8.5-0.6,12.9c-0.8,4.4-2.2,8.3-4.1,11.9c-2,3.6-4.6,6.6-7.8,9c-3.2,2.4-7,3.8-11.4,4.2
			c-3.3,0.3-6.2,0-8.7-0.9c-2.5-0.9-4.6-2.2-6.4-3.9c-1.7-1.7-3-3.7-3.8-6.1c-0.9-2.3-1.2-4.8-1.2-7.5L675.9,179.4z M705.6,157.9
			c-1.6-1.9-3.8-3.1-6.5-3.7c-2.7-0.6-5.5-0.4-8.4,0.6c-2.9,1-5.6,2.9-8.1,5.6c-2.5,2.7-4.4,6.5-5.7,11.2c1.2,1.7,2.8,3.1,4.7,4
			c1.9,1,3.9,1.7,6,2.1c2.1,0.4,4.2,0.5,6.3,0.3c2.1-0.2,4-0.6,5.7-1.2c2.2-0.8,3.9-1.9,5.3-3.5c1.4-1.6,2.3-3.2,2.8-5
			c0.5-1.8,0.6-3.6,0.2-5.5C707.6,160.9,706.8,159.3,705.6,157.9z"/>
		<path class="st4" d="M727,151.1c-0.8-0.8-1.4-2-1.8-3.7c-0.4-1.7-0.6-3.5-0.5-5.4c0.1-1.9,0.4-3.6,1-5.2c0.6-1.6,1.5-2.8,2.9-3.4
			c1.1-0.5,2.3-0.9,3.7-1c1.4-0.1,2.8-0.1,4.4,0.1c-0.1-2.5-0.4-4.5-1.1-6.2c-0.7-1.6-1.8-2.7-3.3-3.3c1.1-1.7,2.6-3.1,4.7-4.1
			c2-1,4.1-1.7,6.3-2c2.2-0.3,4.2-0.1,6.1,0.4c1.9,0.5,3.3,1.5,4.1,2.9c0.9,1.3,1.3,3.2,1.5,5.6c0.1,2.4,0.1,5.2-0.2,8.3
			c2.7-0.2,5.1-1,7.2-2.2c0.9,1.3,1.5,2.9,1.9,4.8c0.4,1.9,0.5,3.7,0.2,5.6c-0.2,1.9-0.8,3.6-1.6,5.1c-0.9,1.5-2.1,2.6-3.7,3.2
			c-1.1,0.4-2.1,0.6-3.1,0.6c-1,0-1.9-0.1-2.9-0.3c-0.6,4.4-1.1,8.7-1.6,12.9c-0.4,4.2-0.5,7.9-0.1,11c0.3,3.1,1.2,5.6,2.6,7.2
			c1.4,1.7,3.6,2.2,6.6,1.6c-1,3.9-2.8,7-5.2,9.3c-2.5,2.3-5.2,3.9-8.1,4.8c-2.9,0.9-5.7,1.1-8.4,0.6c-2.7-0.5-4.7-1.7-6.1-3.4
			c-1.6-2-2.6-4.8-2.8-8.2c-0.2-3.5-0.1-7.3,0.4-11.5c0.5-4.2,1.2-8.6,2.2-13.1s1.8-9,2.7-13.4c-1.3,0.2-2.6,0.5-3.9,0.9
			C729.5,149.8,728.3,150.4,727,151.1z"/>
		<path class="st4" d="M877.6,162.3c1.3,0.8,2.5,2,3.4,3.6c1,1.6,1.6,3.5,1.9,5.6c0.3,2.1,0.2,4.3-0.3,6.6c-0.5,2.3-1.7,4.5-3.4,6.7
			c-1.8,2.3-4,4.3-6.7,6c-2.7,1.7-5.6,3.2-8.7,4.4c-3.1,1.2-6.3,2.1-9.6,2.7c-3.3,0.6-6.5,0.9-9.5,0.9c-3,0-5.8-0.4-8.3-1
			c-2.5-0.6-4.4-1.6-5.8-2.9c-1.5-1.4-2.5-3.1-3-5.2c-0.5-2.1-0.7-4.1-0.3-6.2c0.3-2.1,1-3.9,2.1-5.5c1.1-1.6,2.5-2.8,4.3-3.4
			c0.6,1.5,2,2.6,4,3.3c2.1,0.7,4.4,1.2,7.1,1.3c2.7,0.1,5.5,0,8.5-0.3c3-0.3,5.7-0.9,8.2-1.5c2.4-0.7,4.5-1.5,6.1-2.4
			c1.6-1,2.4-2,2.4-3c0-1.2-0.6-1.9-1.7-2.3c-1.1-0.4-2.6-0.6-4.4-0.6c-1.8,0-3.9,0.1-6.3,0.3c-2.4,0.2-4.8,0.4-7.2,0.5
			c-6.8,0.3-11.9-0.6-15.3-2.7c-3.3-2.1-5-5.2-5-9.3c0-3,0.7-5.9,2.2-8.9c1.5-3,3.6-5.5,6.3-7.6c1.9-1.5,4.1-2.7,6.5-3.8
			c2.4-1,4.9-1.9,7.4-2.5c2.5-0.6,5-1,7.5-1.2c2.4-0.2,4.7-0.1,6.7,0.2c3.5,0.5,6.3,1.6,8.3,3.1c2,1.6,3.3,3.4,4,5.5
			c0.6,2.1,0.7,4.4,0.1,6.8c-0.5,2.4-1.6,4.7-3.3,6.9c-0.9-1.4-2.2-2.5-4-3.2c-1.8-0.7-3.9-1.2-6.2-1.5c-2.3-0.3-4.7-0.3-7.2-0.1
			c-2.4,0.2-4.7,0.6-6.7,1.2c-2,0.6-3.7,1.3-5,2.2c-1.3,0.9-2,1.9-2,3c0,1.3,1.1,2.2,3.4,2.6c2.3,0.4,5.9,0.4,10.7,0
			c3-0.2,5.6-0.3,7.6-0.3c2,0,3.7,0.1,5.1,0.2c1.4,0.1,2.5,0.3,3.4,0.7C875.9,161.4,876.7,161.8,877.6,162.3z"/>
		<path class="st4" d="M229.4,201.4c-5.9,0-10.8-1.2-14.7-3.6c-3.9-2.4-6.9-5.4-9.1-9.1c-2.2-3.7-3.6-7.8-4.3-12.4
			c-0.7-4.6-0.7-9-0.1-13.3c0.6-4.3,1.7-8.2,3.4-11.8c1.6-3.6,3.7-6.2,6-8c1.6-1.8,3.7-3.4,6.3-4.8c2.7-1.4,5.7-2.2,9.2-2.4
			c3.5-0.2,7.3,0.3,11.5,1.6c4.2,1.3,8.7,3.6,13.4,7.1c2.8,2.1,5,4.9,6.7,8.4c1.6,3.6,2.7,7.5,3.1,11.7c0.4,4.2,0.1,8.5-0.9,12.8
			c-1,4.4-2.8,8.3-5.3,11.8c-2.5,3.5-5.9,6.3-10,8.6C240.5,200.3,235.4,201.4,229.4,201.4z M250,158.3c-0.4-1.4-1.2-2.7-2.5-3.8
			c-1.2-1.1-2.7-2-4.5-2.7c-1.8-0.7-3.7-1.1-5.8-1.2c-2.1-0.2-4.3,0-6.5,0.6c-1.9,0.6-3.6,1.8-5,3.8c-1.4,2-2.5,4.3-3.3,7
			c-0.7,2.7-1.1,5.4-1,8.3c0,2.9,0.6,5.5,1.7,7.8c1.1,2.3,2.7,4.2,4.9,5.5c2.2,1.4,5,1.9,8.6,1.5c3.3-0.3,5.9-1.1,7.9-2.4
			c2-1.3,3.5-2.8,4.6-4.5c1.1-1.7,1.8-3.6,2.2-5.5c0.3-2,0.4-3.9,0.3-5.8c-0.1-1.9-0.4-3.6-0.7-5.1
			C250.6,160.3,250.3,159.1,250,158.3z"/>
		<path class="st4" d="M437.5,201.4c-5.9,0-10.8-1.2-14.7-3.6c-3.9-2.4-6.9-5.4-9.1-9.1c-2.2-3.7-3.6-7.8-4.3-12.4
			c-0.7-4.6-0.7-9-0.1-13.3c0.6-4.3,1.7-8.2,3.4-11.8c1.6-3.6,3.7-6.2,6-8c1.6-1.8,3.7-3.4,6.3-4.8c2.7-1.4,5.7-2.2,9.2-2.4
			c3.5-0.2,7.3,0.3,11.5,1.6c4.2,1.3,8.7,3.6,13.4,7.1c2.8,2.1,5,4.9,6.7,8.4c1.6,3.6,2.7,7.5,3.1,11.7c0.4,4.2,0.1,8.5-0.9,12.8
			c-1,4.4-2.8,8.3-5.3,11.8c-2.5,3.5-5.9,6.3-10,8.6C448.5,200.3,443.5,201.4,437.5,201.4z M458,158.3c-0.4-1.4-1.2-2.7-2.5-3.8
			c-1.2-1.1-2.7-2-4.5-2.7c-1.8-0.7-3.7-1.1-5.8-1.2c-2.1-0.2-4.3,0-6.5,0.6c-1.9,0.6-3.6,1.8-5,3.8c-1.4,2-2.5,4.3-3.3,7
			c-0.7,2.7-1.1,5.4-1,8.3c0,2.9,0.6,5.5,1.7,7.8c1.1,2.3,2.7,4.2,4.9,5.5c2.2,1.4,5,1.9,8.6,1.5c3.3-0.3,5.9-1.1,7.9-2.4
			c2-1.3,3.5-2.8,4.6-4.5c1.1-1.7,1.8-3.6,2.2-5.5c0.3-2,0.4-3.9,0.3-5.8c-0.1-1.9-0.4-3.6-0.7-5.1
			C458.6,160.3,458.3,159.1,458,158.3z"/>
		<path class="st4" d="M793.4,201.4c-5.9,0-10.8-1.2-14.7-3.6c-3.9-2.4-6.9-5.4-9.1-9.1c-2.2-3.7-3.6-7.8-4.3-12.4
			c-0.7-4.6-0.7-9-0.1-13.3c0.6-4.3,1.7-8.2,3.4-11.8c1.6-3.6,3.7-6.2,6-8c1.6-1.8,3.7-3.4,6.3-4.8c2.7-1.4,5.7-2.2,9.2-2.4
			c3.5-0.2,7.3,0.3,11.5,1.6c4.2,1.3,8.7,3.6,13.4,7.1c2.8,2.1,5,4.9,6.7,8.4c1.6,3.6,2.7,7.5,3.1,11.7c0.4,4.2,0.1,8.5-0.9,12.8
			c-1,4.4-2.8,8.3-5.3,11.8c-2.5,3.5-5.9,6.3-10,8.6C804.5,200.3,799.4,201.4,793.4,201.4z M814,158.3c-0.4-1.4-1.2-2.7-2.5-3.8
			c-1.2-1.1-2.7-2-4.5-2.7c-1.8-0.7-3.7-1.1-5.8-1.2c-2.1-0.2-4.3,0-6.5,0.6c-1.9,0.6-3.6,1.8-5,3.8c-1.4,2-2.5,4.3-3.3,7
			c-0.7,2.7-1.1,5.4-1,8.3c0,2.9,0.6,5.5,1.7,7.8c1.1,2.3,2.7,4.2,4.9,5.5c2.2,1.4,5,1.9,8.6,1.5c3.3-0.3,5.9-1.1,7.9-2.4
			c2-1.3,3.5-2.8,4.6-4.5c1.1-1.7,1.8-3.6,2.2-5.5c0.3-2,0.4-3.9,0.3-5.8c-0.1-1.9-0.4-3.6-0.7-5.1
			C814.5,160.3,814.2,159.1,814,158.3z"/>
	</g>
</g>
</svg>
